<svg id="my-svg" width="100%" xmlns="http://www.w3.org/2000/svg" xmlns:xlink="http://www.w3.org/1999/xlink" class="flowchart" style="max-width: 1196.54px; background-color: white;" viewBox="0 0 1196.53515625 2777.390625" role="graphics-document document" aria-roledescription="flowchart-v2"><style>#my-svg{font-family:"trebuchet ms",verdana,arial,sans-serif;font-size:16px;fill:#000000;}@keyframes edge-animation-frame{from{stroke-dashoffset:0;}}@keyframes dash{to{stroke-dashoffset:0;}}#my-svg .edge-animation-slow{stroke-dasharray:9,5!important;stroke-dashoffset:900;animation:dash 50s linear infinite;stroke-linecap:round;}#my-svg .edge-animation-fast{stroke-dasharray:9,5!important;stroke-dashoffset:900;animation:dash 20s linear infinite;stroke-linecap:round;}#my-svg .error-icon{fill:#552222;}#my-svg .error-text{fill:#552222;stroke:#552222;}#my-svg .edge-thickness-normal{stroke-width:1px;}#my-svg .edge-thickness-thick{stroke-width:3.5px;}#my-svg .edge-pattern-solid{stroke-dasharray:0;}#my-svg .edge-thickness-invisible{stroke-width:0;fill:none;}#my-svg .edge-pattern-dashed{stroke-dasharray:3;}#my-svg .edge-pattern-dotted{stroke-dasharray:2;}#my-svg .marker{fill:#666;stroke:#666;}#my-svg .marker.cross{stroke:#666;}#my-svg svg{font-family:"trebuchet ms",verdana,arial,sans-serif;font-size:16px;}#my-svg p{margin:0;}#my-svg .label{font-family:"trebuchet ms",verdana,arial,sans-serif;color:#000000;}#my-svg .cluster-label text{fill:#333;}#my-svg .cluster-label span{color:#333;}#my-svg .cluster-label span p{background-color:transparent;}#my-svg .label text,#my-svg span{fill:#000000;color:#000000;}#my-svg .node rect,#my-svg .node circle,#my-svg .node ellipse,#my-svg .node polygon,#my-svg .node path{fill:#eee;stroke:#999;stroke-width:1px;}#my-svg .rough-node .label text,#my-svg .node .label text,#my-svg .image-shape .label,#my-svg .icon-shape .label{text-anchor:middle;}#my-svg .node .katex path{fill:#000;stroke:#000;stroke-width:1px;}#my-svg .rough-node .label,#my-svg .node .label,#my-svg .image-shape .label,#my-svg .icon-shape .label{text-align:center;}#my-svg .node.clickable{cursor:pointer;}#my-svg .root .anchor path{fill:#666!important;stroke-width:0;stroke:#666;}#my-svg .arrowheadPath{fill:#333333;}#my-svg .edgePath .path{stroke:#666;stroke-width:1px;}#my-svg .flowchart-link{stroke:#666;fill:none;}#my-svg .edgeLabel{background-color:white;text-align:center;}#my-svg .edgeLabel p{background-color:white;}#my-svg .edgeLabel rect{opacity:0.5;background-color:white;fill:white;}#my-svg .labelBkg{background-color:rgba(255, 255, 255, 0.5);}#my-svg .cluster rect{fill:hsl(0, 0%, 98.9215686275%);stroke:#707070;stroke-width:1px;}#my-svg .cluster text{fill:#333;}#my-svg .cluster span{color:#333;}#my-svg div.mermaidTooltip{position:absolute;text-align:center;max-width:200px;padding:2px;font-family:"trebuchet ms",verdana,arial,sans-serif;font-size:12px;background:hsl(-160, 0%, 93.3333333333%);border:1px solid #707070;border-radius:2px;pointer-events:none;z-index:100;}#my-svg .flowchartTitleText{text-anchor:middle;font-size:18px;fill:#000000;}#my-svg rect.text{fill:none;stroke-width:0;}#my-svg .icon-shape,#my-svg .image-shape{background-color:white;text-align:center;}#my-svg .icon-shape p,#my-svg .image-shape p{background-color:white;padding:2px;}#my-svg .icon-shape .label rect,#my-svg .image-shape .label rect{opacity:0.5;background-color:white;fill:white;}#my-svg .label-icon{display:inline-block;height:1em;overflow:visible;vertical-align:-0.125em;}#my-svg .node .label-icon path{fill:currentColor;stroke:revert;stroke-width:revert;}#my-svg .node .neo-node{stroke:#999;}#my-svg [data-look="neo"].node rect,#my-svg [data-look="neo"].cluster rect,#my-svg [data-look="neo"].node polygon{stroke:url(#my-svg-gradient);filter:drop-shadow( 1px 2px 2px rgba(185,185,185,1));}#my-svg [data-look="neo"].swimlane.cluster rect{filter:none;}#my-svg [data-look="neo"].node path{stroke:url(#my-svg-gradient);stroke-width:1px;}#my-svg [data-look="neo"].node .outer-path{filter:drop-shadow( 1px 2px 2px rgba(185,185,185,1));}#my-svg [data-look="neo"].node .neo-line path{stroke:#999;filter:none;}#my-svg [data-look="neo"].node circle{stroke:url(#my-svg-gradient);filter:drop-shadow( 1px 2px 2px rgba(185,185,185,1));}#my-svg [data-look="neo"].node circle .state-start{fill:#000000;}#my-svg [data-look="neo"].icon-shape .icon{fill:url(#my-svg-gradient);filter:drop-shadow( 1px 2px 2px rgba(185,185,185,1));}#my-svg [data-look="neo"].icon-shape .icon-neo path{stroke:url(#my-svg-gradient);filter:drop-shadow( 1px 2px 2px rgba(185,185,185,1));}#my-svg :root{--mermaid-font-family:"trebuchet ms",verdana,arial,sans-serif;}#my-svg .negligible&gt;*{fill:rgb(214, 245, 214)!important;stroke:rgb(60, 140, 60)!important;color:rgb(17, 34, 51)!important;}#my-svg .negligible span{fill:rgb(214, 245, 214)!important;stroke:rgb(60, 140, 60)!important;color:rgb(17, 34, 51)!important;}#my-svg .negligible tspan{fill:rgb(17, 34, 51)!important;}#my-svg .minimal&gt;*{fill:rgb(255, 246, 204)!important;stroke:rgb(184, 145, 42)!important;color:rgb(17, 34, 51)!important;}#my-svg .minimal span{fill:rgb(255, 246, 204)!important;stroke:rgb(184, 145, 42)!important;color:rgb(17, 34, 51)!important;}#my-svg .minimal tspan{fill:rgb(17, 34, 51)!important;}#my-svg .slow&gt;*{fill:rgb(255, 217, 179)!important;stroke:rgb(201, 111, 19)!important;color:rgb(17, 34, 51)!important;}#my-svg .slow span{fill:rgb(255, 217, 179)!important;stroke:rgb(201, 111, 19)!important;color:rgb(17, 34, 51)!important;}#my-svg .slow tspan{fill:rgb(17, 34, 51)!important;}#my-svg .dead&gt;*{fill:rgb(238, 238, 238)!important;stroke:rgb(153, 153, 153)!important;color:rgb(85, 85, 85)!important;}#my-svg .dead span{fill:rgb(238, 238, 238)!important;stroke:rgb(153, 153, 153)!important;color:rgb(85, 85, 85)!important;}#my-svg .dead tspan{fill:rgb(85, 85, 85)!important;}</style><g><marker id="my-svg_flowchart-v2-pointEnd" class="marker flowchart-v2" viewBox="0 0 10 10" refX="5" refY="5" markerUnits="userSpaceOnUse" markerWidth="8" markerHeight="8" orient="auto"><path d="M 0 0 L 10 5 L 0 10 z" class="arrowMarkerPath" style="stroke-width: 1; stroke-dasharray: 1, 0;"/></marker><marker id="my-svg_flowchart-v2-pointStart" class="marker flowchart-v2" viewBox="0 0 10 10" refX="4.5" refY="5" markerUnits="userSpaceOnUse" markerWidth="8" markerHeight="8" orient="auto"><path d="M 0 5 L 10 10 L 10 0 z" class="arrowMarkerPath" style="stroke-width: 1; stroke-dasharray: 1, 0;"/></marker><marker id="my-svg_flowchart-v2-pointEnd-margin" class="marker flowchart-v2" viewBox="0 0 11.5 14" refX="11.5" refY="7" markerUnits="userSpaceOnUse" markerWidth="10.5" markerHeight="14" orient="auto"><path d="M 0 0 L 11.5 7 L 0 14 z" class="arrowMarkerPath" style="stroke-width: 0; stroke-dasharray: 1, 0;"/></marker><marker id="my-svg_flowchart-v2-pointStart-margin" class="marker flowchart-v2" viewBox="0 0 11.5 14" refX="1" refY="7" markerUnits="userSpaceOnUse" markerWidth="11.5" markerHeight="14" orient="auto"><polygon points="0,7 11.5,14 11.5,0" class="arrowMarkerPath" style="stroke-width: 0; stroke-dasharray: 1, 0;"/></marker><marker id="my-svg_flowchart-v2-circleEnd" class="marker flowchart-v2" viewBox="0 0 10 10" refX="11" refY="5" markerUnits="userSpaceOnUse" markerWidth="11" markerHeight="11" orient="auto"><circle cx="5" cy="5" r="5" class="arrowMarkerPath" style="stroke-width: 1; stroke-dasharray: 1, 0;"/></marker><marker id="my-svg_flowchart-v2-circleStart" class="marker flowchart-v2" viewBox="0 0 10 10" refX="-1" refY="5" markerUnits="userSpaceOnUse" markerWidth="11" markerHeight="11" orient="auto"><circle cx="5" cy="5" r="5" class="arrowMarkerPath" style="stroke-width: 1; stroke-dasharray: 1, 0;"/></marker><marker id="my-svg_flowchart-v2-circleEnd-margin" class="marker flowchart-v2" viewBox="0 0 10 10" refY="5" refX="12.25" markerUnits="userSpaceOnUse" markerWidth="14" markerHeight="14" orient="auto"><circle cx="5" cy="5" r="5" class="arrowMarkerPath" style="stroke-width: 0; stroke-dasharray: 1, 0;"/></marker><marker id="my-svg_flowchart-v2-circleStart-margin" class="marker flowchart-v2" viewBox="0 0 10 10" refX="-2" refY="5" markerUnits="userSpaceOnUse" markerWidth="14" markerHeight="14" orient="auto"><circle cx="5" cy="5" r="5" class="arrowMarkerPath" style="stroke-width: 0; stroke-dasharray: 1, 0;"/></marker><marker id="my-svg_flowchart-v2-crossEnd" class="marker cross flowchart-v2" viewBox="0 0 11 11" refX="12" refY="5.2" markerUnits="userSpaceOnUse" markerWidth="11" markerHeight="11" orient="auto"><path d="M 1,1 l 9,9 M 10,1 l -9,9" class="arrowMarkerPath" style="stroke-width: 2; stroke-dasharray: 1, 0;"/></marker><marker id="my-svg_flowchart-v2-crossStart" class="marker cross flowchart-v2" viewBox="0 0 11 11" refX="-1" refY="5.2" markerUnits="userSpaceOnUse" markerWidth="11" markerHeight="11" orient="auto"><path d="M 1,1 l 9,9 M 10,1 l -9,9" class="arrowMarkerPath" style="stroke-width: 2; stroke-dasharray: 1, 0;"/></marker><marker id="my-svg_flowchart-v2-crossEnd-margin" class="marker cross flowchart-v2" viewBox="0 0 15 15" refX="17.7" refY="7.5" markerUnits="userSpaceOnUse" markerWidth="12" markerHeight="12" orient="auto"><path d="M 1,1 L 14,14 M 1,14 L 14,1" class="arrowMarkerPath" style="stroke-width: 2.5;"/></marker><marker id="my-svg_flowchart-v2-crossStart-margin" class="marker cross flowchart-v2" viewBox="0 0 15 15" refX="-3.5" refY="7.5" markerUnits="userSpaceOnUse" markerWidth="12" markerHeight="12" orient="auto"><path d="M 1,1 L 14,14 M 1,14 L 14,1" class="arrowMarkerPath" style="stroke-width: 2.5; stroke-dasharray: 1, 0;"/></marker><g class="root"><g class="clusters"><g class="cluster" id="my-svg-DISP" data-look="classic"><rect style="" x="258.2109375" y="2472.390625" width="293.625" height="297"/><g class="cluster-label" transform="translate(327.890625, 2472.390625)"><foreignObject width="154.265625" height="24"><div xmlns="http://www.w3.org/1999/xhtml" style="display: table-cell; white-space: nowrap; line-height: 1.5;"><span class="nodeLabel"><p>Display server + GPU</p></span></div></foreignObject></g></g><g class="cluster" id="my-svg-PRES" data-look="classic"><rect style="" x="227.0625" y="2318.390625" width="355.921875" height="104"/><g class="cluster-label" transform="translate(345.4296875, 2318.390625)"><foreignObject width="119.1875" height="24"><div xmlns="http://www.w3.org/1999/xhtml" style="display: table-cell; white-space: nowrap; line-height: 1.5;"><span class="nodeLabel"><p>Presenter thread</p></span></div></foreignObject></g></g><g class="cluster" id="my-svg-WORK" data-look="classic"><rect style="" x="8" y="1325" width="581.640625" height="943.390625"/><g class="cluster-label" transform="translate(141.8515625, 1325)"><foreignObject width="313.9375" height="24"><div xmlns="http://www.w3.org/1999/xhtml" style="display: table-cell; white-space: nowrap; line-height: 1.5;"><span class="nodeLabel"><p>Render worker — the only thread that draws</p></span></div></foreignObject></g></g><g class="cluster" id="my-svg-TICK" data-look="classic"><rect style="" x="609.640625" y="364" width="578.89453125" height="1113"/><g class="cluster-label" transform="translate(811.470703125, 364)"><foreignObject width="175.234375" height="24"><div xmlns="http://www.w3.org/1999/xhtml" style="display: table-cell; white-space: nowrap; line-height: 1.5;"><span class="nodeLabel"><p>Loop thread — one pass</p></span></div></foreignObject></g></g><g class="cluster" id="my-svg-FWD" data-look="classic"><rect style="" x="753.62890625" y="162" width="321.234375" height="152"/><g class="cluster-label" transform="translate(866.21484375, 162)"><foreignObject width="96.0625" height="24"><div xmlns="http://www.w3.org/1999/xhtml" style="display: table-cell; white-space: nowrap; line-height: 1.5;"><span class="nodeLabel"><p>Bridge thread</p></span></div></foreignObject></g></g><g class="cluster" id="my-svg-SUB" data-look="classic"><rect style="" x="765.19921875" y="8" width="298.09375" height="104"/><g class="cluster-label" transform="translate(800.86328125, 8)"><foreignObject width="226.765625" height="24"><div xmlns="http://www.w3.org/1999/xhtml" style="display: table-cell; white-space: nowrap; line-height: 1.5;"><span class="nodeLabel"><p>Subprocess (Stream or Module)</p></span></div></foreignObject></g></g></g><g class="edgePaths"><path d="M914.246,87L914.246,91.167C914.246,95.333,914.246,103.667,914.246,112C914.246,120.333,914.246,128.667,914.246,137C914.246,145.333,914.246,153.667,914.246,161.333C914.246,169,914.246,176,914.246,179.5L914.246,183" id="my-svg-L_A_B_0" class="edge-thickness-normal edge-pattern-solid edge-thickness-normal edge-pattern-solid flowchart-link" style=";" data-edge="true" data-et="edge" data-id="L_A_B_0" data-points="W3sieCI6OTE0LjI0NjA5Mzc1LCJ5Ijo4N30seyJ4Ijo5MTQuMjQ2MDkzNzUsInkiOjExMn0seyJ4Ijo5MTQuMjQ2MDkzNzUsInkiOjEzN30seyJ4Ijo5MTQuMjQ2MDkzNzUsInkiOjE2Mn0seyJ4Ijo5MTQuMjQ2MDkzNzUsInkiOjE4N31d" data-look="classic" marker-end="url(#my-svg_flowchart-v2-pointEnd)"/><path d="M914.246,289L914.246,293.167C914.246,297.333,914.246,305.667,914.246,314C914.246,322.333,914.246,330.667,914.246,339C914.246,347.333,914.246,355.667,914.246,363.333C914.246,371,914.246,378,914.246,381.5L914.246,385" id="my-svg-L_B_C_0" class="edge-thickness-normal edge-pattern-solid edge-thickness-normal edge-pattern-solid flowchart-link" style=";" data-edge="true" data-et="edge" data-id="L_B_C_0" data-points="W3sieCI6OTE0LjI0NjA5Mzc1LCJ5IjoyODl9LHsieCI6OTE0LjI0NjA5Mzc1LCJ5IjozMTR9LHsieCI6OTE0LjI0NjA5Mzc1LCJ5IjozMzl9LHsieCI6OTE0LjI0NjA5Mzc1LCJ5IjozNjR9LHsieCI6OTE0LjI0NjA5Mzc1LCJ5IjozODl9XQ==" data-look="classic" marker-end="url(#my-svg_flowchart-v2-pointEnd)"/><path d="M914.246,443L914.246,447.167C914.246,451.333,914.246,459.667,914.246,467.333C914.246,475,914.246,482,914.246,485.5L914.246,489" id="my-svg-L_C_D_0" class="edge-thickness-normal edge-pattern-solid edge-thickness-normal edge-pattern-solid flowchart-link" style=";" data-edge="true" data-et="edge" data-id="L_C_D_0" data-points="W3sieCI6OTE0LjI0NjA5Mzc1LCJ5Ijo0NDN9LHsieCI6OTE0LjI0NjA5Mzc1LCJ5Ijo0Njh9LHsieCI6OTE0LjI0NjA5Mzc1LCJ5Ijo0OTN9XQ==" data-look="classic" marker-end="url(#my-svg_flowchart-v2-pointEnd)"/><path d="M972.031,737.215L981.824,753.013C991.617,768.81,1011.203,800.405,1020.996,830.869C1030.789,861.333,1030.789,890.667,1030.789,920C1030.789,949.333,1030.789,978.667,1030.789,1008C1030.789,1037.333,1030.789,1066.667,1030.789,1094C1030.789,1121.333,1030.789,1146.667,1030.789,1162.833C1030.789,1179,1030.789,1186,1030.789,1189.5L1030.789,1193" id="my-svg-L_D_NOOP_0" class="edge-thickness-normal edge-pattern-solid edge-thickness-normal edge-pattern-solid flowchart-link" style=";" data-edge="true" data-et="edge" data-id="L_D_NOOP_0" data-points="W3sieCI6OTcyLjAzMTAwNDU0MTAxNjMsInkiOjczNy4yMTUwODkyMDg5ODM3fSx7IngiOjEwMzAuNzg5MDYyNSwieSI6ODMyfSx7IngiOjEwMzAuNzg5MDYyNSwieSI6OTIwfSx7IngiOjEwMzAuNzg5MDYyNSwieSI6MTAwOH0seyJ4IjoxMDMwLjc4OTA2MjUsInkiOjEwOTZ9LHsieCI6MTAzMC43ODkwNjI1LCJ5IjoxMTcyfSx7IngiOjEwMzAuNzg5MDYyNSwieSI6MTE5N31d" data-look="classic" marker-end="url(#my-svg_flowchart-v2-pointEnd)"/><path d="M1030.789,1275L1030.789,1279.167C1030.789,1283.333,1030.789,1291.667,1030.789,1300C1030.789,1308.333,1030.789,1316.667,1029.967,1324.351C1029.146,1332.035,1027.502,1339.07,1026.681,1342.587L1025.859,1346.105" id="my-svg-L_NOOP_FLOOR_0" class="edge-thickness-normal edge-pattern-solid edge-thickness-normal edge-pattern-solid flowchart-link" style=";" data-edge="true" data-et="edge" data-id="L_NOOP_FLOOR_0" data-points="W3sieCI6MTAzMC43ODkwNjI1LCJ5IjoxMjc1fSx7IngiOjEwMzAuNzg5MDYyNSwieSI6MTMwMH0seyJ4IjoxMDMwLjc4OTA2MjUsInkiOjEzMjV9LHsieCI6MTAyNC45NDg5NjE3NTk4NjgzLCJ5IjoxMzUwfV0=" data-look="classic" marker-end="url(#my-svg_flowchart-v2-pointEnd)"/><path d="M852.768,733.522L841.497,749.935C830.226,766.348,807.683,799.174,796.412,821.087C785.141,843,785.141,854,785.141,859.5L785.141,865" id="my-svg-L_D_E_0" class="edge-thickness-normal edge-pattern-solid edge-thickness-normal edge-pattern-solid flowchart-link" style=";" data-edge="true" data-et="edge" data-id="L_D_E_0" data-points="W3sieCI6ODUyLjc2ODM1OTM2MDU2NDMsInkiOjczMy41MjIyNjU2MTA1NjQzfSx7IngiOjc4NS4xNDA2MjUsInkiOjgzMn0seyJ4Ijo3ODUuMTQwNjI1LCJ5Ijo4Njl9XQ==" data-look="classic" marker-end="url(#my-svg_flowchart-v2-pointEnd)"/><path d="M785.141,971L785.141,977.167C785.141,983.333,785.141,995.667,785.141,1007.333C785.141,1019,785.141,1030,785.141,1035.5L785.141,1041" id="my-svg-L_E_F_0" class="edge-thickness-normal edge-pattern-solid edge-thickness-normal edge-pattern-solid flowchart-link" style=";" data-edge="true" data-et="edge" data-id="L_E_F_0" data-points="W3sieCI6Nzg1LjE0MDYyNSwieSI6OTcxfSx7IngiOjc4NS4xNDA2MjUsInkiOjEwMDh9LHsieCI6Nzg1LjE0MDYyNSwieSI6MTA0NX1d" data-look="classic" marker-end="url(#my-svg_flowchart-v2-pointEnd)"/><path d="M785.141,1147L785.141,1151.167C785.141,1155.333,785.141,1163.667,785.141,1173.333C785.141,1183,785.141,1194,785.141,1199.5L785.141,1205" id="my-svg-L_F_G_0" class="edge-thickness-normal edge-pattern-solid edge-thickness-normal edge-pattern-solid flowchart-link" style=";" data-edge="true" data-et="edge" data-id="L_F_G_0" data-points="W3sieCI6Nzg1LjE0MDYyNSwieSI6MTE0N30seyJ4Ijo3ODUuMTQwNjI1LCJ5IjoxMTcyfSx7IngiOjc4NS4xNDA2MjUsInkiOjEyMDl9XQ==" data-look="classic" marker-end="url(#my-svg_flowchart-v2-pointEnd)"/><path d="M754.555,1263L747.569,1269.167C740.583,1275.333,726.612,1287.667,719.626,1298C712.641,1308.333,712.641,1316.667,664.035,1329.514C615.428,1342.36,518.216,1359.721,469.61,1368.401L421.004,1377.081" id="my-svg-L_G_H_0" class="edge-thickness-normal edge-pattern-solid edge-thickness-normal edge-pattern-solid flowchart-link" style=";" data-edge="true" data-et="edge" data-id="L_G_H_0" data-points="W3sieCI6NzU0LjU1NDY4NzUsInkiOjEyNjN9LHsieCI6NzEyLjY0MDYyNSwieSI6MTMwMH0seyJ4Ijo3MTIuNjQwNjI1LCJ5IjoxMzI1fSx7IngiOjQxNy4wNjY0MDYyNSwieSI6MTM3Ny43ODQzMDc5NjYyNTl9XQ==" data-look="classic" marker-end="url(#my-svg_flowchart-v2-pointEnd)"/><path d="M287.066,1452L287.066,1456.167C287.066,1460.333,287.066,1468.667,287.066,1477C287.066,1485.333,287.066,1493.667,287.066,1501.333C287.066,1509,287.066,1516,287.066,1519.5L287.066,1523" id="my-svg-L_H_I_0" class="edge-thickness-normal edge-pattern-solid edge-thickness-normal edge-pattern-solid flowchart-link" style=";" data-edge="true" data-et="edge" data-id="L_H_I_0" data-points="W3sieCI6Mjg3LjA2NjQwNjI1LCJ5IjoxNDUyfSx7IngiOjI4Ny4wNjY0MDYyNSwieSI6MTQ3N30seyJ4IjoyODcuMDY2NDA2MjUsInkiOjE1MDJ9LHsieCI6Mjg3LjA2NjQwNjI1LCJ5IjoxNTI3fV0=" data-look="classic" marker-end="url(#my-svg_flowchart-v2-pointEnd)"/><path d="M829.467,1263L839.591,1269.167C849.715,1275.333,869.963,1287.667,880.087,1298C890.211,1308.333,890.211,1316.667,896.378,1324.649C902.545,1332.632,914.878,1340.264,921.045,1344.079L927.212,1347.895" id="my-svg-L_G_FLOOR_0" class="edge-thickness-normal edge-pattern-solid edge-thickness-normal edge-pattern-solid flowchart-link" style=";" data-edge="true" data-et="edge" data-id="L_G_FLOOR_0" data-points="W3sieCI6ODI5LjQ2NzE2MzA4NTkzNzUsInkiOjEyNjN9LHsieCI6ODkwLjIxMDkzNzUsInkiOjEzMDB9LHsieCI6ODkwLjIxMDkzNzUsInkiOjEzMjV9LHsieCI6OTMwLjYxMzY0MTAzNjE4NDIsInkiOjEzNTB9XQ==" data-look="classic" marker-end="url(#my-svg_flowchart-v2-pointEnd)"/><path d="M270.633,1774.473L269.366,1783.378C268.099,1792.284,265.565,1810.095,253.908,1830.382C242.251,1850.669,221.471,1873.432,211.081,1884.813L200.691,1896.194" id="my-svg-L_I_WAIT_0" class="edge-thickness-normal edge-pattern-solid edge-thickness-normal edge-pattern-solid flowchart-link" style=";" data-edge="true" data-et="edge" data-id="L_I_WAIT_0" data-points="W3sieCI6MjcwLjYzMjY5MzUwNTg0NDU0LCJ5IjoxNzc0LjQ3MjUzNzI1NTg0NDZ9LHsieCI6MjYzLjAzMTI1LCJ5IjoxODI3LjkwNjI1fSx7IngiOjE5Ny45OTM5MTMyMTQ4Njc4MywieSI6MTg5OS4xNDg0Mzc1fV0=" data-look="classic" marker-end="url(#my-svg_flowchart-v2-pointEnd)"/><path d="M138.619,1899.148L131.382,1887.275C124.145,1875.401,109.67,1851.654,122.216,1822.359C134.763,1793.065,174.33,1758.224,194.114,1740.803L213.897,1723.383" id="my-svg-L_WAIT_I_0" class="edge-thickness-normal edge-pattern-solid edge-thickness-normal edge-pattern-solid flowchart-link" style=";" data-edge="true" data-et="edge" data-id="L_WAIT_I_0" data-points="W3sieCI6MTM4LjYxOTE3MDEwNjY1NDQsInkiOjE4OTkuMTQ4NDM3NX0seyJ4Ijo5NS4xOTUzMTI1LCJ5IjoxODI3LjkwNjI1fSx7IngiOjIxNi44OTkzMDI0MzA4OTAxMiwieSI6MTcyMC43MzkxNDYxODA4OTAyfV0=" data-look="classic" marker-end="url(#my-svg_flowchart-v2-pointEnd)"/><path d="M341.316,1736.657L351.934,1751.865C362.552,1767.073,383.788,1797.49,394.406,1818.198C405.023,1838.906,405.023,1849.906,405.023,1855.406L405.023,1860.906" id="my-svg-L_I_J_0" class="edge-thickness-normal edge-pattern-solid edge-thickness-normal edge-pattern-solid flowchart-link" style=";" data-edge="true" data-et="edge" data-id="L_I_J_0" data-points="W3sieCI6MzQxLjMxNjEzNzU2ODY3MDEsInkiOjE3MzYuNjU2NTE4NjgxMzN9LHsieCI6NDA1LjAyMzQzNzUsInkiOjE4MjcuOTA2MjV9LHsieCI6NDA1LjAyMzQzNzUsInkiOjE4NjQuOTA2MjV9XQ==" data-look="classic" marker-end="url(#my-svg_flowchart-v2-pointEnd)"/><path d="M435.391,1981.023L443.343,1992.251C451.296,2003.479,467.201,2025.935,475.153,2047.829C483.105,2069.724,483.105,2091.057,483.105,2110.391C483.105,2129.724,483.105,2147.057,477.404,2159.521C471.702,2171.985,460.299,2179.579,454.597,2183.376L448.895,2187.173" id="my-svg-L_J_L_0" class="edge-thickness-normal edge-pattern-solid edge-thickness-normal edge-pattern-solid flowchart-link" style=";" data-edge="true" data-et="edge" data-id="L_J_L_0" data-points="W3sieCI6NDM1LjM5MDc0MTM1MDUyMTY0LCJ5IjoxOTgxLjAyMzMyMTE0OTQ3ODN9LHsieCI6NDgzLjEwNTQ2ODc1LCJ5IjoyMDQ4LjM5MDYyNX0seyJ4Ijo0ODMuMTA1NDY4NzUsInkiOjIxMTIuMzkwNjI1fSx7IngiOjQ4My4xMDU0Njg3NSwieSI6MjE2NC4zOTA2MjV9LHsieCI6NDQ1LjU2NjAzMDY0OTAzODQ1LCJ5IjoyMTg5LjM5MDYyNX1d" data-look="classic" marker-end="url(#my-svg_flowchart-v2-pointEnd)"/><path d="M364.601,1970.968L348.708,1983.872C332.815,1996.776,301.028,2022.583,285.135,2040.987C269.242,2059.391,269.242,2070.391,269.242,2075.891L269.242,2081.391" id="my-svg-L_J_K_0" class="edge-thickness-normal edge-pattern-solid edge-thickness-normal edge-pattern-solid flowchart-link" style=";" data-edge="true" data-et="edge" data-id="L_J_K_0" data-points="W3sieCI6MzY0LjYwMDgwMTg2NjAwOTM2LCJ5IjoxOTcwLjk2Nzk4OTM2NjAwOTN9LHsieCI6MjY5LjI0MjE4NzUsInkiOjIwNDguMzkwNjI1fSx7IngiOjI2OS4yNDIxODc1LCJ5IjoyMDg1LjM5MDYyNX1d" data-look="classic" marker-end="url(#my-svg_flowchart-v2-pointEnd)"/><path d="M269.242,2139.391L269.242,2143.557C269.242,2147.724,269.242,2156.057,279.5,2164.152C289.757,2172.247,310.272,2180.104,320.529,2184.032L330.786,2187.96" id="my-svg-L_K_L_0" class="edge-thickness-normal edge-pattern-solid edge-thickness-normal edge-pattern-solid flowchart-link" style=";" data-edge="true" data-et="edge" data-id="L_K_L_0" data-points="W3sieCI6MjY5LjI0MjE4NzUsInkiOjIxMzkuMzkwNjI1fSx7IngiOjI2OS4yNDIxODc1LCJ5IjoyMTY0LjM5MDYyNX0seyJ4IjozMzQuNTIxNjM0NjE1Mzg0NjQsInkiOjIxODkuMzkwNjI1fV0=" data-look="classic" marker-end="url(#my-svg_flowchart-v2-pointEnd)"/><path d="M405.023,2243.391L405.023,2247.557C405.023,2251.724,405.023,2260.057,405.023,2268.391C405.023,2276.724,405.023,2285.057,405.023,2293.391C405.023,2301.724,405.023,2310.057,405.023,2317.724C405.023,2325.391,405.023,2332.391,405.023,2335.891L405.023,2339.391" id="my-svg-L_L_M_0" class="edge-thickness-normal edge-pattern-solid edge-thickness-normal edge-pattern-solid flowchart-link" style=";" data-edge="true" data-et="edge" data-id="L_L_M_0" data-points="W3sieCI6NDA1LjAyMzQzNzUsInkiOjIyNDMuMzkwNjI1fSx7IngiOjQwNS4wMjM0Mzc1LCJ5IjoyMjY4LjM5MDYyNX0seyJ4Ijo0MDUuMDIzNDM3NSwieSI6MjI5My4zOTA2MjV9LHsieCI6NDA1LjAyMzQzNzUsInkiOjIzMTguMzkwNjI1fSx7IngiOjQwNS4wMjM0Mzc1LCJ5IjoyMzQzLjM5MDYyNX1d" data-look="classic" marker-end="url(#my-svg_flowchart-v2-pointEnd)"/><path d="M405.023,2397.391L405.023,2401.557C405.023,2405.724,405.023,2414.057,405.023,2422.391C405.023,2430.724,405.023,2439.057,405.023,2447.391C405.023,2455.724,405.023,2464.057,405.023,2471.724C405.023,2479.391,405.023,2486.391,405.023,2489.891L405.023,2493.391" id="my-svg-L_M_N_0" class="edge-thickness-normal edge-pattern-solid edge-thickness-normal edge-pattern-solid flowchart-link" style=";" data-edge="true" data-et="edge" data-id="L_M_N_0" data-points="W3sieCI6NDA1LjAyMzQzNzUsInkiOjIzOTcuMzkwNjI1fSx7IngiOjQwNS4wMjM0Mzc1LCJ5IjoyNDIyLjM5MDYyNX0seyJ4Ijo0MDUuMDIzNDM3NSwieSI6MjQ0Ny4zOTA2MjV9LHsieCI6NDA1LjAyMzQzNzUsInkiOjI0NzIuMzkwNjI1fSx7IngiOjQwNS4wMjM0Mzc1LCJ5IjoyNDk3LjM5MDYyNX1d" data-look="classic" marker-end="url(#my-svg_flowchart-v2-pointEnd)"/><path d="M405.023,2551.391L405.023,2555.557C405.023,2559.724,405.023,2568.057,405.023,2575.724C405.023,2583.391,405.023,2590.391,405.023,2593.891L405.023,2597.391" id="my-svg-L_N_O_0" class="edge-thickness-normal edge-pattern-solid edge-thickness-normal edge-pattern-solid flowchart-link" style=";" data-edge="true" data-et="edge" data-id="L_N_O_0" data-points="W3sieCI6NDA1LjAyMzQzNzUsInkiOjI1NTEuMzkwNjI1fSx7IngiOjQwNS4wMjM0Mzc1LCJ5IjoyNTc2LjM5MDYyNX0seyJ4Ijo0MDUuMDIzNDM3NSwieSI6MjYwMS4zOTA2MjV9XQ==" data-look="classic" marker-end="url(#my-svg_flowchart-v2-pointEnd)"/><path d="M405.023,2655.391L405.023,2659.557C405.023,2663.724,405.023,2672.057,405.094,2679.807C405.164,2687.558,405.304,2694.724,405.375,2698.308L405.445,2701.891" id="my-svg-L_O_P_0" class="edge-thickness-normal edge-pattern-solid edge-thickness-normal edge-pattern-solid flowchart-link" style=";" data-edge="true" data-et="edge" data-id="L_O_P_0" data-points="W3sieCI6NDA1LjAyMzQzNzUsInkiOjI2NTUuMzkwNjI1fSx7IngiOjQwNS4wMjM0Mzc1LCJ5IjoyNjgwLjM5MDYyNX0seyJ4Ijo0MDUuNTIzNDM3NSwieSI6MjcwNS44OTA2MjV9XQ==" data-look="classic" marker-end="url(#my-svg_flowchart-v2-pointEnd)"/></g><g class="edgeLabels"><g class="edgeLabel"><g class="label" data-id="L_A_B_0" transform="translate(0, 0)"><foreignObject width="0" height="0"><div xmlns="http://www.w3.org/1999/xhtml" class="labelBkg" style="display: table-cell; white-space: nowrap; line-height: 1.5; max-width: 200px; text-align: center;"><span class="edgeLabel"></span></div></foreignObject></g></g><g class="edgeLabel"><g class="label" data-id="L_B_C_0" transform="translate(0, 0)"><foreignObject width="0" height="0"><div xmlns="http://www.w3.org/1999/xhtml" class="labelBkg" style="display: table-cell; white-space: nowrap; line-height: 1.5; max-width: 200px; text-align: center;"><span class="edgeLabel"></span></div></foreignObject></g></g><g class="edgeLabel"><g class="label" data-id="L_C_D_0" transform="translate(0, 0)"><foreignObject width="0" height="0"><div xmlns="http://www.w3.org/1999/xhtml" class="labelBkg" style="display: table-cell; white-space: nowrap; line-height: 1.5; max-width: 200px; text-align: center;"><span class="edgeLabel"></span></div></foreignObject></g></g><g class="edgeLabel" transform="translate(1030.7890625, 1008)"><g class="label" data-id="L_D_NOOP_0" transform="translate(-40.9140625, -12)"><foreignObject width="81.828125" height="24"><div xmlns="http://www.w3.org/1999/xhtml" class="labelBkg" style="display: table-cell; white-space: nowrap; line-height: 1.5; max-width: 200px; text-align: center;"><span class="edgeLabel"><p>same value</p></span></div></foreignObject></g></g><g class="edgeLabel"><g class="label" data-id="L_NOOP_FLOOR_0" transform="translate(0, 0)"><foreignObject width="0" height="0"><div xmlns="http://www.w3.org/1999/xhtml" class="labelBkg" style="display: table-cell; white-space: nowrap; line-height: 1.5; max-width: 200px; text-align: center;"><span class="edgeLabel"></span></div></foreignObject></g></g><g class="edgeLabel" transform="translate(785.140625, 832)"><g class="label" data-id="L_D_E_0" transform="translate(-30.6953125, -12)"><foreignObject width="61.390625" height="24"><div xmlns="http://www.w3.org/1999/xhtml" class="labelBkg" style="display: table-cell; white-space: nowrap; line-height: 1.5; max-width: 200px; text-align: center;"><span class="edgeLabel"><p>changed</p></span></div></foreignObject></g></g><g class="edgeLabel"><g class="label" data-id="L_E_F_0" transform="translate(0, 0)"><foreignObject width="0" height="0"><div xmlns="http://www.w3.org/1999/xhtml" class="labelBkg" style="display: table-cell; white-space: nowrap; line-height: 1.5; max-width: 200px; text-align: center;"><span class="edgeLabel"></span></div></foreignObject></g></g><g class="edgeLabel"><g class="label" data-id="L_F_G_0" transform="translate(0, 0)"><foreignObject width="0" height="0"><div xmlns="http://www.w3.org/1999/xhtml" class="labelBkg" style="display: table-cell; white-space: nowrap; line-height: 1.5; max-width: 200px; text-align: center;"><span class="edgeLabel"></span></div></foreignObject></g></g><g class="edgeLabel"><g class="label" data-id="L_G_H_0" transform="translate(0, 0)"><foreignObject width="0" height="0"><div xmlns="http://www.w3.org/1999/xhtml" class="labelBkg" style="display: table-cell; white-space: nowrap; line-height: 1.5; max-width: 200px; text-align: center;"><span class="edgeLabel"></span></div></foreignObject></g></g><g class="edgeLabel"><g class="label" data-id="L_H_I_0" transform="translate(0, 0)"><foreignObject width="0" height="0"><div xmlns="http://www.w3.org/1999/xhtml" class="labelBkg" style="display: table-cell; white-space: nowrap; line-height: 1.5; max-width: 200px; text-align: center;"><span class="edgeLabel"></span></div></foreignObject></g></g><g class="edgeLabel"><g class="label" data-id="L_G_FLOOR_0" transform="translate(0, 0)"><foreignObject width="0" height="0"><div xmlns="http://www.w3.org/1999/xhtml" class="labelBkg" style="display: table-cell; white-space: nowrap; line-height: 1.5; max-width: 200px; text-align: center;"><span class="edgeLabel"></span></div></foreignObject></g></g><g class="edgeLabel" transform="translate(248.7068, 1843.59731)"><g class="label" data-id="L_I_WAIT_0" transform="translate(-12.453125, -12)"><foreignObject width="24.90625" height="24"><div xmlns="http://www.w3.org/1999/xhtml" class="labelBkg" style="display: table-cell; white-space: nowrap; line-height: 1.5; max-width: 200px; text-align: center;"><span class="edgeLabel"><p>yes</p></span></div></foreignObject></g></g><g class="edgeLabel"><g class="label" data-id="L_WAIT_I_0" transform="translate(0, 0)"><foreignObject width="0" height="0"><div xmlns="http://www.w3.org/1999/xhtml" class="labelBkg" style="display: table-cell; white-space: nowrap; line-height: 1.5; max-width: 200px; text-align: center;"><span class="edgeLabel"></span></div></foreignObject></g></g><g class="edgeLabel" transform="translate(405.0234375, 1827.90625)"><g class="label" data-id="L_I_J_0" transform="translate(-8.8984375, -12)"><foreignObject width="17.796875" height="24"><div xmlns="http://www.w3.org/1999/xhtml" class="labelBkg" style="display: table-cell; white-space: nowrap; line-height: 1.5; max-width: 200px; text-align: center;"><span class="edgeLabel"><p>no</p></span></div></foreignObject></g></g><g class="edgeLabel" transform="translate(483.10546875, 2112.390625)"><g class="label" data-id="L_J_L_0" transform="translate(-8.453125, -12)"><foreignObject width="16.90625" height="24"><div xmlns="http://www.w3.org/1999/xhtml" class="labelBkg" style="display: table-cell; white-space: nowrap; line-height: 1.5; max-width: 200px; text-align: center;"><span class="edgeLabel"><p>hit</p></span></div></foreignObject></g></g><g class="edgeLabel" transform="translate(269.2421875, 2048.390625)"><g class="label" data-id="L_J_K_0" transform="translate(-16.4453125, -12)"><foreignObject width="32.890625" height="24"><div xmlns="http://www.w3.org/1999/xhtml" class="labelBkg" style="display: table-cell; white-space: nowrap; line-height: 1.5; max-width: 200px; text-align: center;"><span class="edgeLabel"><p>miss</p></span></div></foreignObject></g></g><g class="edgeLabel"><g class="label" data-id="L_K_L_0" transform="translate(0, 0)"><foreignObject width="0" height="0"><div xmlns="http://www.w3.org/1999/xhtml" class="labelBkg" style="display: table-cell; white-space: nowrap; line-height: 1.5; max-width: 200px; text-align: center;"><span class="edgeLabel"></span></div></foreignObject></g></g><g class="edgeLabel"><g class="label" data-id="L_L_M_0" transform="translate(0, 0)"><foreignObject width="0" height="0"><div xmlns="http://www.w3.org/1999/xhtml" class="labelBkg" style="display: table-cell; white-space: nowrap; line-height: 1.5; max-width: 200px; text-align: center;"><span class="edgeLabel"></span></div></foreignObject></g></g><g class="edgeLabel"><g class="label" data-id="L_M_N_0" transform="translate(0, 0)"><foreignObject width="0" height="0"><div xmlns="http://www.w3.org/1999/xhtml" class="labelBkg" style="display: table-cell; white-space: nowrap; line-height: 1.5; max-width: 200px; text-align: center;"><span class="edgeLabel"></span></div></foreignObject></g></g><g class="edgeLabel"><g class="label" data-id="L_N_O_0" transform="translate(0, 0)"><foreignObject width="0" height="0"><div xmlns="http://www.w3.org/1999/xhtml" class="labelBkg" style="display: table-cell; white-space: nowrap; line-height: 1.5; max-width: 200px; text-align: center;"><span class="edgeLabel"></span></div></foreignObject></g></g><g class="edgeLabel"><g class="label" data-id="L_O_P_0" transform="translate(0, 0)"><foreignObject width="0" height="0"><div xmlns="http://www.w3.org/1999/xhtml" class="labelBkg" style="display: table-cell; white-space: nowrap; line-height: 1.5; max-width: 200px; text-align: center;"><span class="edgeLabel"></span></div></foreignObject></g></g></g><g class="nodes"><g class="node default negligible" id="my-svg-flowchart-A-0" data-look="classic" transform="translate(914.24609375, 60)"><rect class="basic label-container" style="fill:#d6f5d6 !important;stroke:#3c8c3c !important" x="-114.046875" y="-27" width="228.09375" height="54"/><g class="label" style="color:#123 !important" transform="translate(-84.046875, -12)"><rect/><foreignObject width="168.09375" height="24"><div style="color: rgb(17, 34, 51) !important; display: table-cell; white-space: nowrap; line-height: 1.5; max-width: 200px; text-align: center;" xmlns="http://www.w3.org/1999/xhtml"><span style="color:#123 !important" class="nodeLabel"><p>writes one line to stdout</p></span></div></foreignObject></g></g><g class="node default negligible" id="my-svg-flowchart-B-1" data-look="classic" transform="translate(914.24609375, 238)"><rect class="basic label-container" style="fill:#d6f5d6 !important;stroke:#3c8c3c !important" x="-125.6171875" y="-51" width="251.234375" height="102"/><g class="label" style="color:#123 !important" transform="translate(-95.6171875, -36)"><rect/><foreignObject width="191.234375" height="72"><div style="color: rgb(17, 34, 51) !important; display: table-cell; white-space: nowrap; line-height: 1.5; max-width: 200px; text-align: center;" xmlns="http://www.w3.org/1999/xhtml"><span style="color:#123 !important" class="nodeLabel"><p>converts to a StreamItem,<br />puts it on the item channel,<br />then pings the notifier</p></span></div></foreignObject></g></g><g class="node default negligible" id="my-svg-flowchart-C-2" data-look="classic" transform="translate(914.24609375, 416)"><rect class="basic label-container" style="fill:#d6f5d6 !important;stroke:#3c8c3c !important" x="-107.8359375" y="-27" width="215.671875" height="54"/><g class="label" style="color:#123 !important" transform="translate(-77.8359375, -12)"><rect/><foreignObject width="155.671875" height="24"><div style="color: rgb(17, 34, 51) !important; display: table-cell; white-space: nowrap; line-height: 1.5; max-width: 200px; text-align: center;" xmlns="http://www.w3.org/1999/xhtml"><span style="color:#123 !important" class="nodeLabel"><p>the ping ends the wait</p></span></div></foreignObject></g></g><g class="node default negligible" id="my-svg-flowchart-D-3" data-look="classic" transform="translate(914.24609375, 644)"><polygon points="151,0 302,-151 151,-302 0,-151" class="label-container" transform="translate(-150.5, 151)" style="fill:#d6f5d6 !important;stroke:#3c8c3c !important"/><g class="label" style="color:#123 !important" transform="translate(-100, -36)"><rect/><foreignObject width="200" height="72"><div style="color: rgb(17, 34, 51) !important; display: table; white-space: break-spaces; line-height: 1.5; max-width: 200px; text-align: center; width: 200px;" xmlns="http://www.w3.org/1999/xhtml"><span style="color:#123 !important" class="nodeLabel"><p>drain the item channel:<br />differs from the stored value?</p></span></div></foreignObject></g></g><g class="node default dead" id="my-svg-flowchart-NOOP-4" data-look="classic" transform="translate(1030.7890625, 1236)"><rect class="basic label-container" style="fill:#eee !important;stroke:#999 !important" x="-94.4921875" y="-39" width="188.984375" height="78"/><g class="label" style="color:#555 !important" transform="translate(-64.4921875, -24)"><rect/><foreignObject width="128.984375" height="48"><div style="color: rgb(85, 85, 85) !important; display: table-cell; white-space: nowrap; line-height: 1.5; max-width: 200px; text-align: center;" xmlns="http://www.w3.org/1999/xhtml"><span style="color:#555 !important" class="nodeLabel"><p>nothing happens<br />no eval, no render</p></span></div></foreignObject></g></g><g class="node default negligible" id="my-svg-flowchart-E-5" data-look="classic" transform="translate(785.140625, 920)"><rect class="basic label-container" style="fill:#d6f5d6 !important;stroke:#3c8c3c !important" x="-130" y="-51" width="260" height="102"/><g class="label" style="color:#123 !important" transform="translate(-100, -36)"><rect/><foreignObject width="200" height="72"><div style="color: rgb(17, 34, 51) !important; display: table; white-space: break-spaces; line-height: 1.5; max-width: 200px; text-align: center; width: 200px;" xmlns="http://www.w3.org/1999/xhtml"><span style="color:#123 !important" class="nodeLabel"><p>JsxEvaluator::eval<br />whole tree rebuilt from scratch</p></span></div></foreignObject></g></g><g class="node default negligible" id="my-svg-flowchart-F-6" data-look="classic" transform="translate(785.140625, 1096)"><rect class="basic label-container" style="fill:#d6f5d6 !important;stroke:#3c8c3c !important" x="-130" y="-51" width="260" height="102"/><g class="label" style="color:#123 !important" transform="translate(-100, -36)"><rect/><foreignObject width="200" height="72"><div style="color: rgb(17, 34, 51) !important; display: table; white-space: break-spaces; line-height: 1.5; max-width: 200px; text-align: center; width: 200px;" xmlns="http://www.w3.org/1999/xhtml"><span style="color:#123 !important" class="nodeLabel"><p>reconcile_all: diff every surface<br />crop_for cuts the backdrop</p></span></div></foreignObject></g></g><g class="node default negligible" id="my-svg-flowchart-G-7" data-look="classic" transform="translate(785.140625, 1236)"><rect class="basic label-container" style="fill:#d6f5d6 !important;stroke:#3c8c3c !important" x="-101.15625" y="-27" width="202.3125" height="54"/><g class="label" style="color:#123 !important" transform="translate(-71.15625, -12)"><rect/><foreignObject width="142.3125" height="24"><div style="color: rgb(17, 34, 51) !important; display: table-cell; white-space: nowrap; line-height: 1.5; max-width: 200px; text-align: center;" xmlns="http://www.w3.org/1999/xhtml"><span style="color:#123 !important" class="nodeLabel"><p>RenderJob::Repaint</p></span></div></foreignObject></g></g><g class="node default negligible" id="my-svg-flowchart-FLOOR-8" data-look="classic" transform="translate(1013.03515625, 1401)"><rect class="basic label-container" style="fill:#d6f5d6 !important;stroke:#3c8c3c !important" x="-130" y="-51" width="260" height="102"/><g class="label" style="color:#123 !important" transform="translate(-100, -36)"><rect/><foreignObject width="200" height="72"><div style="color: rgb(17, 34, 51) !important; display: table; white-space: break-spaces; line-height: 1.5; max-width: 200px; text-align: center; width: 200px;" xmlns="http://www.w3.org/1999/xhtml"><span style="color:#123 !important" class="nodeLabel"><p>coalescing floor:<br />a pass may not finish faster than 2ms</p></span></div></foreignObject></g></g><g class="node default negligible" id="my-svg-flowchart-H-9" data-look="classic" transform="translate(287.06640625, 1401)"><rect class="basic label-container" style="fill:#d6f5d6 !important;stroke:#3c8c3c !important" x="-130" y="-51" width="260" height="102"/><g class="label" style="color:#123 !important" transform="translate(-100, -36)"><rect/><foreignObject width="200" height="72"><div style="color: rgb(17, 34, 51) !important; display: table; white-space: break-spaces; line-height: 1.5; max-width: 200px; text-align: center; width: 200px;" xmlns="http://www.w3.org/1999/xhtml"><span style="color:#123 !important" class="nodeLabel"><p>slot per target<br />a newer request overwrites the old</p></span></div></foreignObject></g></g><g class="node default slow" id="my-svg-flowchart-I-10" data-look="classic" transform="translate(287.06640625, 1658.953125)"><polygon points="131.953125,0 263.90625,-131.953125 131.953125,-263.90625 0,-131.953125" class="label-container" transform="translate(-131.453125, 131.953125)" style="fill:#ffd9b3 !important;stroke:#c96f13 !important"/><g class="label" style="color:#123 !important" transform="translate(-92.953125, -24)"><rect/><foreignObject width="185.90625" height="48"><div style="color: rgb(17, 34, 51) !important; display: table-cell; white-space: nowrap; line-height: 1.5; max-width: 200px; text-align: center;" xmlns="http://www.w3.org/1999/xhtml"><span style="color:#123 !important" class="nodeLabel"><p>repaint floor<br />drawn under 12.5ms ago?</p></span></div></foreignObject></g></g><g class="node default slow" id="my-svg-flowchart-WAIT-11" data-look="classic" transform="translate(162.390625, 1938.1484375)"><rect class="basic label-container" style="fill:#ffd9b3 !important;stroke:#c96f13 !important" x="-119.390625" y="-39" width="238.78125" height="78"/><g class="label" style="color:#123 !important" transform="translate(-89.390625, -24)"><rect/><foreignObject width="178.78125" height="48"><div style="color: rgb(17, 34, 51) !important; display: table-cell; white-space: nowrap; line-height: 1.5; max-width: 200px; text-align: center;" xmlns="http://www.w3.org/1999/xhtml"><span style="color:#123 !important" class="nodeLabel"><p>held in its slot<br />delayed, never discarded</p></span></div></foreignObject></g></g><g class="node default negligible" id="my-svg-flowchart-J-12" data-look="classic" transform="translate(405.0234375, 1938.1484375)"><polygon points="73.2421875,0 146.484375,-73.2421875 73.2421875,-146.484375 0,-73.2421875" class="label-container" transform="translate(-72.7421875, 73.2421875)" style="fill:#d6f5d6 !important;stroke:#3c8c3c !important"/><g class="label" style="color:#123 !important" transform="translate(-46.2421875, -12)"><rect/><foreignObject width="92.484375" height="24"><div style="color: rgb(17, 34, 51) !important; display: table-cell; white-space: nowrap; line-height: 1.5; max-width: 200px; text-align: center;" xmlns="http://www.w3.org/1999/xhtml"><span style="color:#123 !important" class="nodeLabel"><p>FrameCache</p></span></div></foreignObject></g></g><g class="node default slow" id="my-svg-flowchart-K-13" data-look="classic" transform="translate(269.2421875, 2112.390625)"><rect class="basic label-container" style="fill:#ffd9b3 !important;stroke:#c96f13 !important" x="-90.4609375" y="-27" width="180.921875" height="54"/><g class="label" style="color:#123 !important" transform="translate(-60.4609375, -12)"><rect/><foreignObject width="120.921875" height="24"><div style="color: rgb(17, 34, 51) !important; display: table-cell; white-space: nowrap; line-height: 1.5; max-width: 200px; text-align: center;" xmlns="http://www.w3.org/1999/xhtml"><span style="color:#123 !important" class="nodeLabel"><p>takumi rasterizes</p></span></div></foreignObject></g></g><g class="node default" id="my-svg-flowchart-L-14" data-look="classic" transform="translate(405.0234375, 2216.390625)"><rect class="basic label-container" style="" x="-149.6171875" y="-27" width="299.234375" height="54"/><g class="label" style="" transform="translate(-119.6171875, -12)"><rect/><foreignObject width="239.234375" height="24"><div xmlns="http://www.w3.org/1999/xhtml" style="display: table; white-space: break-spaces; line-height: 1.5; max-width: 200px; text-align: center; width: 200px;"><span class="nodeLabel"><p>SurfaceCommand::UpdatePicture</p></span></div></foreignObject></g></g><g class="node default minimal" id="my-svg-flowchart-M-15" data-look="classic" transform="translate(405.0234375, 2370.390625)"><rect class="basic label-container" style="fill:#fff6cc !important;stroke:#b8912a !important" x="-142.9609375" y="-27" width="285.921875" height="54"/><g class="label" style="color:#123 !important" transform="translate(-112.9609375, -12)"><rect/><foreignObject width="225.921875" height="24"><div style="color: rgb(17, 34, 51) !important; display: table; white-space: break-spaces; line-height: 1.5; max-width: 200px; text-align: center; width: 200px;" xmlns="http://www.w3.org/1999/xhtml"><span style="color:#123 !important" class="nodeLabel"><p>DisplayManager::update_image</p></span></div></foreignObject></g></g><g class="node default slow" id="my-svg-flowchart-N-16" data-look="classic" transform="translate(405.0234375, 2524.390625)"><rect class="basic label-container" style="fill:#ffd9b3 !important;stroke:#c96f13 !important" x="-111.8125" y="-27" width="223.625" height="54"/><g class="label" style="color:#123 !important" transform="translate(-81.8125, -12)"><rect/><foreignObject width="163.625" height="24"><div style="color: rgb(17, 34, 51) !important; display: table-cell; white-space: nowrap; line-height: 1.5; max-width: 200px; text-align: center;" xmlns="http://www.w3.org/1999/xhtml"><span style="color:#123 !important" class="nodeLabel"><p>compositor composites</p></span></div></foreignObject></g></g><g class="node default slow" id="my-svg-flowchart-O-17" data-look="classic" transform="translate(405.0234375, 2628.390625)"><rect class="basic label-container" style="fill:#ffd9b3 !important;stroke:#c96f13 !important" x="-92.265625" y="-27" width="184.53125" height="54"/><g class="label" style="color:#123 !important" transform="translate(-62.265625, -12)"><rect/><foreignObject width="124.53125" height="24"><div style="color: rgb(17, 34, 51) !important; display: table-cell; white-space: nowrap; line-height: 1.5; max-width: 200px; text-align: center;" xmlns="http://www.w3.org/1999/xhtml"><span style="color:#123 !important" class="nodeLabel"><p>scanout at vblank</p></span></div></foreignObject></g></g><g class="node default" id="my-svg-flowchart-P-18" data-look="classic" transform="translate(405.0234375, 2724.890625)"><g class="basic label-container outer-path"><path d="M-21.34375 -19.5 C-5.8799751224996815 -19.5, 9.583799755000637 -19.5, 21.34375 -19.5 C21.34375 -19.5, 21.34375 -19.5, 21.34375 -19.5 C21.78448697727544 -19.48586642298126, 22.225223954550874 -19.47173284596252, 22.5931192896239 -19.45993515863156 C23.08856560159289 -19.412140048777278, 23.58401191356188 -19.364344938922997, 23.837354652847864 -19.3399052695533 C24.247805203154336 -19.273546807671305, 24.658255753460807 -19.207188345789316, 25.07134325967676 -19.140403561325776 C25.38630188754689 -19.068516309811542, 25.70126051541702 -18.99662905829731, 26.29001438623539 -18.862249829261074 C26.713871884156838 -18.736451148751396, 27.137729382078284 -18.61065246824172, 27.488360251460602 -18.50658706670804 C27.912051480772693 -18.3506647777624, 28.335742710084784 -18.19474248881676, 28.661456595147794 -18.074876768247425 C28.936976222167587 -17.95291240236511, 29.21249584918738 -17.8309480364828, 29.80448291279238 -17.568892924097174 C30.037737195615577 -17.44720431415481, 30.270991478438773 -17.32551570421245, 30.912742264076783 -16.990714730406097 C31.16637768206734 -16.83695944949306, 31.420013100057893 -16.683204168580023, 31.981680573605697 -16.342718045390892 C32.32013299201727 -16.10662828967603, 32.65858541042885 -15.87053853396117, 33.00690534457871 -15.627565626425154 C33.205314154752536 -15.46933988019171, 33.40372296492636 -15.311114133958263, 33.984203708501866 -14.848196188198123 C34.223287933140305 -14.631066221203433, 34.462372157778745 -14.413936254208744, 34.90955973676799 -14.007812326905688 C35.10306177977429 -13.808005580688494, 35.29656382278059 -13.6081988344713, 35.77917094296865 -13.10986736009568 C35.98933550278704 -12.862996109430771, 36.19950006260543 -12.61612485876586, 36.58946390812658 -12.158051136245305 C36.7590957657783 -11.930759900772149, 36.92872762343002 -11.70346866529899, 37.337108964640635 -11.156274872382312 C37.50702902205298 -10.895232034272741, 37.67694907946533 -10.63418919616317, 38.01903387860425 -10.108655082055241 C38.17994276291235 -9.822945064174835, 38.34085164722045 -9.53723504629443, 38.632436474273504 -9.019496659696287 C38.74940666661235 -8.776605552543488, 38.8663768589512 -8.533714445390691, 39.17479614880834 -7.893275190886684 C39.307037059826904 -7.566637583966757, 39.43927797084546 -7.239999977046828, 39.643884229970325 -6.734618561215508 C39.794084433072015 -6.282239480625663, 39.944284636173705 -5.82986040003582, 40.03777313421488 -5.548287939305138 C40.131768220820675 -5.189843936349017, 40.22576330742647 -4.8313999333928965, 40.35484428754556 -4.339158212148133 C40.41353551286699 -4.037791174517425, 40.47222673818843 -3.736424136886716, 40.593794776581774 -3.1121979531509023 C40.649875247798825 -2.677248892733118, 40.70595571901587 -2.242299832315334, 40.75364270250937 -1.872449005199798 C40.78199310877 -1.4308685436544082, 40.81034351503063 -0.9892880821090184, 40.83373121591342 -0.6250057626472757 C40.83373121591342 -0.297332527961418, 40.83373121591342 0.03034070672443967, 40.83373121591342 0.625005762647271 C40.812812509295824 0.9508315034922846, 40.79189380267824 1.276657244337298, 40.75364270250937 1.8724490051997846 C40.700177665475394 2.2871132745695517, 40.64671262844141 2.7017775439393183, 40.593794776581774 3.1121979531508885 C40.53573244134031 3.410335773136926, 40.47767010609884 3.7084735931229638, 40.35484428754556 4.339158212148129 C40.2703158430111 4.661501806017652, 40.18578739847663 4.9838453998871755, 40.03777313421489 5.548287939305125 C39.95327113972699 5.802794483138228, 39.8687691452391 6.057301026971329, 39.643884229970325 6.734618561215495 C39.529951380447486 7.016034902278713, 39.41601853092464 7.297451243341932, 39.17479614880834 7.893275190886679 C39.023667222478295 8.207097640052025, 38.87253829614825 8.52092008921737, 38.632436474273504 9.019496659696284 C38.387789904050564 9.453891418278651, 38.143143333827624 9.888286176861019, 38.01903387860425 10.108655082055236 C37.817276942874805 10.41860791465872, 37.61552000714537 10.728560747262206, 37.33710896464064 11.156274872382301 C37.04959734788323 11.541514245990111, 36.762085731125815 11.926753619597923, 36.58946390812658 12.158051136245302 C36.299172740228244 12.499043660094081, 36.008881572329905 12.840036183942862, 35.77917094296866 13.10986736009567 C35.52088868278547 13.376564999102747, 35.26260642260227 13.643262638109825, 34.90955973676799 14.007812326905684 C34.62145515107927 14.26946128879856, 34.33335056539055 14.531110250691437, 33.98420370850189 14.848196188198111 C33.603032843698024 15.152169809496483, 33.22186197889417 15.456143430794853, 33.00690534457871 15.627565626425152 C32.707752393960135 15.836241774654162, 32.40859944334155 16.044917922883172, 31.981680573605708 16.34271804539089 C31.640366376158834 16.549624717668046, 31.29905217871196 16.756531389945202, 30.912742264076787 16.990714730406093 C30.572547035913455 17.16819436303346, 30.232351807750128 17.345673995660825, 29.804482912792388 17.56889292409717 C29.438583521846844 17.730865730448972, 29.072684130901305 17.892838536800777, 28.661456595147804 18.07487676824742 C28.23654224518424 18.231249176899205, 27.811627895220674 18.387621585550992, 27.488360251460616 18.506587066708033 C27.119328055620564 18.616113885343836, 26.75029585978051 18.725640703979643, 26.290014386235413 18.86224982926107 C26.004727259906804 18.927364754173094, 25.719440133578193 18.99247967908512, 25.071343259676766 19.140403561325773 C24.810909930115734 19.182508402358565, 24.550476600554703 19.22461324339136, 23.83735465284788 19.3399052695533 C23.503113079924013 19.37214915210896, 23.168871507000148 19.404393034664622, 22.5931192896239 19.45993515863156 C22.182846822629827 19.473091798101148, 21.77257435563575 19.486248437570733, 21.343750000000004 19.5 C21.343750000000004 19.5, 21.34375 19.5, 21.34375 19.5 C9.597995851273541 19.5, -2.147758297452917 19.5, -21.343749999999996 19.5 C-21.627928172434213 19.49088695912929, -21.912106344868427 19.481773918258583, -22.593119289623893 19.45993515863156 C-22.88876353724785 19.431414713627504, -23.184407784871812 19.40289426862345, -23.83735465284787 19.3399052695533 C-24.110591410586924 19.29573046954475, -24.383828168325977 19.251555669536206, -25.07134325967676 19.140403561325773 C-25.374428019479993 19.071226442713577, -25.67751277928323 19.002049324101385, -26.290014386235388 18.862249829261074 C-26.575628054620513 18.77748119170111, -26.861241723005634 18.692712554141142, -27.48836025146059 18.506587066708043 C-27.75594972791208 18.40811166580389, -28.023539204363566 18.30963626489974, -28.661456595147797 18.074876768247425 C-28.95883994443824 17.943233981080173, -29.25622329372868 17.811591193912918, -29.80448291279238 17.568892924097174 C-30.106017902402836 17.411582313159776, -30.407552892013296 17.25427170222238, -30.91274226407678 16.990714730406097 C-31.155031537460182 16.843837549031264, -31.39732081084358 16.69696036765643, -31.981680573605686 16.3427180453909 C-32.222182618248766 16.174954230213604, -32.46268466289184 16.00719041503631, -33.00690534457871 15.627565626425156 C-33.269755185710245 15.417949872850787, -33.532605026841786 15.208334119276417, -33.984203708501866 14.848196188198125 C-34.33174764228339 14.532565983046334, -34.67929157606492 14.216935777894543, -34.909559736767974 14.007812326905697 C-35.14922021854263 13.760343202981877, -35.38888070031729 13.512874079058058, -35.779170942968655 13.109867360095677 C-36.09484713541503 12.739056141963959, -36.410523327861405 12.36824492383224, -36.589463908126575 12.158051136245307 C-36.77275489774829 11.912457908304878, -36.95604588737 11.66686468036445, -37.337108964640635 11.156274872382316 C-37.527771221453726 10.86336644593278, -37.71843347826682 10.570458019483244, -38.01903387860425 10.108655082055249 C-38.23482996841432 9.725487272873853, -38.450626058224394 9.342319463692457, -38.632436474273504 9.019496659696289 C-38.78313169642585 8.706574806535729, -38.933826918578184 8.39365295337517, -39.17479614880834 7.893275190886686 C-39.35726291642642 7.442578747115063, -39.5397296840445 6.99188230334344, -39.643884229970325 6.73461856121551 C-39.72656386166134 6.485600683772521, -39.809243493352355 6.236582806329533, -40.03777313421488 5.5482879393051325 C-40.14961560914091 5.121784109576933, -40.26145808406694 4.695280279848735, -40.35484428754556 4.339158212148136 C-40.427569319766256 3.965730542135875, -40.500294351986945 3.5923028721236143, -40.593794776581774 3.112197953150904 C-40.641176503342464 2.7447146369752287, -40.68855823010316 2.3772313207995532, -40.75364270250937 1.872449005199809 C-40.78253567755358 1.42241759689646, -40.8114286525978 0.972386188593111, -40.83373121591342 0.6250057626472781 C-40.83373121591342 0.13861507723937894, -40.83373121591342 -0.34777560816852027, -40.83373121591342 -0.6250057626472687 C-40.80507960235451 -1.0712777709934236, -40.776427988795604 -1.5175497793395787, -40.75364270250937 -1.8724490051997822 C-40.69801128354261 -2.3039153050396757, -40.64237986457586 -2.7353816048795694, -40.593794776581774 -3.112197953150895 C-40.515866557172465 -3.5123428896826945, -40.43793833776316 -3.9124878262144938, -40.35484428754556 -4.339158212148126 C-40.288518438495494 -4.592087420380856, -40.22219258944542 -4.845016628613585, -40.03777313421489 -5.548287939305123 C-39.9172677142847 -5.911231064203594, -39.7967622943545 -6.274174189102065, -39.64388422997033 -6.734618561215485 C-39.53353390603223 -7.007185994820957, -39.42318358209414 -7.279753428426429, -39.17479614880834 -7.893275190886676 C-39.012889048033536 -8.22947874990256, -38.850981947258724 -8.565682308918444, -38.632436474273504 -9.019496659696282 C-38.50327552460208 -9.248835004802284, -38.37411457493065 -9.478173349908289, -38.01903387860425 -10.108655082055243 C-37.872568744009925 -10.33366486018768, -37.726103609415595 -10.558674638320118, -37.33710896464064 -11.156274872382308 C-37.13892626968522 -11.421821628807644, -36.940743574729794 -11.68736838523298, -36.58946390812659 -12.158051136245302 C-36.30838233343497 -12.48822554787277, -36.027300758743344 -12.818399959500239, -35.77917094296866 -13.10986736009567 C-35.481746711342936 -13.41698229823278, -35.18432247971721 -13.72409723636989, -34.909559736767996 -14.007812326905677 C-34.70886586716482 -14.190077189210475, -34.50817199756164 -14.372342051515274, -33.98420370850189 -14.848196188198107 C-33.62326698015537 -15.136033624124735, -33.26233025180885 -15.423871060051363, -33.00690534457872 -15.627565626425149 C-32.66416793050457 -15.866644409619749, -32.32143051643042 -16.10572319281435, -31.98168057360571 -16.342718045390885 C-31.572958602690164 -16.5904877060768, -31.16423663177462 -16.83825736676271, -30.91274226407679 -16.99071473040609 C-30.612572863505974 -17.147312914416208, -30.312403462935155 -17.303911098426326, -29.804482912792388 -17.56889292409717 C-29.384924227645882 -17.754619108245333, -28.965365542499377 -17.940345292393495, -28.661456595147804 -18.07487676824742 C-28.269673389569583 -18.21905660950446, -27.877890183991365 -18.363236450761494, -27.48836025146062 -18.506587066708033 C-27.24565214697153 -18.578621558119554, -27.002944042482444 -18.65065604953108, -26.290014386235413 -18.862249829261067 C-25.92136879556421 -18.94639077969447, -25.55272320489301 -19.030531730127876, -25.071343259676766 -19.140403561325773 C-24.754220834034946 -19.1916734557824, -24.43709840839313 -19.24294335023903, -23.837354652847882 -19.3399052695533 C-23.348705277395908 -19.387044687116294, -22.860055901943937 -19.434184104679293, -22.593119289623903 -19.45993515863156 C-22.1481962095947 -19.474202975817857, -21.7032731295655 -19.488470793004154, -21.343750000000007 -19.5 C-21.343750000000007 -19.5, -21.343750000000004 -19.5, -21.34375 -19.5" stroke="none" stroke-width="0" fill="#eee" style=""/><path d="M-21.34375 -19.5 C-6.343488466002501 -19.5, 8.656773067994997 -19.5, 21.34375 -19.5 M-21.34375 -19.5 C-6.541162949901837 -19.5, 8.261424100196326 -19.5, 21.34375 -19.5 M21.34375 -19.5 C21.34375 -19.5, 21.34375 -19.5, 21.34375 -19.5 M21.34375 -19.5 C21.34375 -19.5, 21.34375 -19.5, 21.34375 -19.5 M21.34375 -19.5 C21.77616545114183 -19.486133278127497, 22.20858090228366 -19.472266556254997, 22.5931192896239 -19.45993515863156 M21.34375 -19.5 C21.621012355340206 -19.491108735922676, 21.898274710680415 -19.48221747184535, 22.5931192896239 -19.45993515863156 M22.5931192896239 -19.45993515863156 C22.96755339948782 -19.423813950375887, 23.34198750935174 -19.387692742120215, 23.837354652847864 -19.3399052695533 M22.5931192896239 -19.45993515863156 C23.065101611960216 -19.414403591637566, 23.537083934296536 -19.368872024643572, 23.837354652847864 -19.3399052695533 M23.837354652847864 -19.3399052695533 C24.298151202509096 -19.265407256934687, 24.758947752170325 -19.19090924431607, 25.07134325967676 -19.140403561325776 M23.837354652847864 -19.3399052695533 C24.169669059380926 -19.286179253441745, 24.501983465913987 -19.232453237330194, 25.07134325967676 -19.140403561325776 M25.07134325967676 -19.140403561325776 C25.49626221071973 -19.043418583605508, 25.921181161762703 -18.946433605885243, 26.29001438623539 -18.862249829261074 M25.07134325967676 -19.140403561325776 C25.539634249027596 -19.03351919889074, 26.007925238378437 -18.9266348364557, 26.29001438623539 -18.862249829261074 M26.29001438623539 -18.862249829261074 C26.686030847362808 -18.744714222331282, 27.082047308490225 -18.627178615401487, 27.488360251460602 -18.50658706670804 M26.29001438623539 -18.862249829261074 C26.647144846604963 -18.756255383239427, 27.004275306974534 -18.650260937217777, 27.488360251460602 -18.50658706670804 M27.488360251460602 -18.50658706670804 C27.760421652768603 -18.40646595611867, 28.032483054076604 -18.3063448455293, 28.661456595147794 -18.074876768247425 M27.488360251460602 -18.50658706670804 C27.942535701950064 -18.339446302576075, 28.39671115243953 -18.17230553844411, 28.661456595147794 -18.074876768247425 M28.661456595147794 -18.074876768247425 C28.991133754510304 -17.928938469323107, 29.320810913872812 -17.78300017039879, 29.80448291279238 -17.568892924097174 M28.661456595147794 -18.074876768247425 C28.951179083369876 -17.946625217023765, 29.240901571591962 -17.818373665800106, 29.80448291279238 -17.568892924097174 M29.80448291279238 -17.568892924097174 C30.210189111147603 -17.357236260282477, 30.61589530950283 -17.14557959646778, 30.912742264076783 -16.990714730406097 M29.80448291279238 -17.568892924097174 C30.13691498610434 -17.39546332438323, 30.469347059416304 -17.222033724669284, 30.912742264076783 -16.990714730406097 M30.912742264076783 -16.990714730406097 C31.20361916103062 -16.814383446090297, 31.494496057984456 -16.638052161774493, 31.981680573605697 -16.342718045390892 M30.912742264076783 -16.990714730406097 C31.220857147185466 -16.803933677581576, 31.528972030294153 -16.617152624757054, 31.981680573605697 -16.342718045390892 M31.981680573605697 -16.342718045390892 C32.35763684710682 -16.08046722388129, 32.733593120607935 -15.818216402371684, 33.00690534457871 -15.627565626425154 M31.981680573605697 -16.342718045390892 C32.309835744648666 -16.11381120367972, 32.63799091569163 -15.884904361968546, 33.00690534457871 -15.627565626425154 M33.00690534457871 -15.627565626425154 C33.34095553909307 -15.361169485748958, 33.675005733607435 -15.094773345072761, 33.984203708501866 -14.848196188198123 M33.00690534457871 -15.627565626425154 C33.302546670189166 -15.3917995365969, 33.59818799579962 -15.156033446768644, 33.984203708501866 -14.848196188198123 M33.984203708501866 -14.848196188198123 C34.21906834387882 -14.634898340526505, 34.45393297925577 -14.421600492854887, 34.90955973676799 -14.007812326905688 M33.984203708501866 -14.848196188198123 C34.335742269350156 -14.52893816843634, 34.68728083019844 -14.20968014867456, 34.90955973676799 -14.007812326905688 M34.90955973676799 -14.007812326905688 C35.23140473070159 -13.67548094670382, 35.553249724635194 -13.343149566501953, 35.77917094296865 -13.10986736009568 M34.90955973676799 -14.007812326905688 C35.12314252585423 -13.787270561701044, 35.336725314940466 -13.5667287964964, 35.77917094296865 -13.10986736009568 M35.77917094296865 -13.10986736009568 C36.07969659174631 -12.756852832647587, 36.380222240523985 -12.403838305199491, 36.58946390812658 -12.158051136245305 M35.77917094296865 -13.10986736009568 C36.05028335188329 -12.791403297851462, 36.32139576079793 -12.472939235607242, 36.58946390812658 -12.158051136245305 M36.58946390812658 -12.158051136245305 C36.84126742876654 -11.820657358360398, 37.09307094940651 -11.48326358047549, 37.337108964640635 -11.156274872382312 M36.58946390812658 -12.158051136245305 C36.74541731601249 -11.949087777325925, 36.9013707238984 -11.740124418406543, 37.337108964640635 -11.156274872382312 M37.337108964640635 -11.156274872382312 C37.49468883973449 -10.914189868116864, 37.65226871482836 -10.672104863851414, 38.01903387860425 -10.108655082055241 M37.337108964640635 -11.156274872382312 C37.51315404188497 -10.885822359012694, 37.6891991191293 -10.615369845643077, 38.01903387860425 -10.108655082055241 M38.01903387860425 -10.108655082055241 C38.235527332120384 -9.724249032997994, 38.45202078563653 -9.339842983940747, 38.632436474273504 -9.019496659696287 M38.01903387860425 -10.108655082055241 C38.16325717126419 -9.8525720217455, 38.30748046392414 -9.596488961435757, 38.632436474273504 -9.019496659696287 M38.632436474273504 -9.019496659696287 C38.84178986602347 -8.584769862282494, 39.05114325777343 -8.1500430648687, 39.17479614880834 -7.893275190886684 M38.632436474273504 -9.019496659696287 C38.79760584864229 -8.67651891976103, 38.96277522301108 -8.33354117982577, 39.17479614880834 -7.893275190886684 M39.17479614880834 -7.893275190886684 C39.287265060240365 -7.615474805211114, 39.39973397167238 -7.337674419535544, 39.643884229970325 -6.734618561215508 M39.17479614880834 -7.893275190886684 C39.294188181983266 -7.598374560656696, 39.413580215158184 -7.303473930426708, 39.643884229970325 -6.734618561215508 M39.643884229970325 -6.734618561215508 C39.790162480819994 -6.294051775930515, 39.93644073166967 -5.853484990645521, 40.03777313421488 -5.548287939305138 M39.643884229970325 -6.734618561215508 C39.772914658210205 -6.345999469563865, 39.90194508645009 -5.957380377912222, 40.03777313421488 -5.548287939305138 M40.03777313421488 -5.548287939305138 C40.119353035997484 -5.237188416854983, 40.20093293778009 -4.9260888944048284, 40.35484428754556 -4.339158212148133 M40.03777313421488 -5.548287939305138 C40.127402331400624 -5.206492964896104, 40.217031528586375 -4.864697990487071, 40.35484428754556 -4.339158212148133 M40.35484428754556 -4.339158212148133 C40.42643160501223 -3.9715724669416543, 40.49801892247891 -3.6039867217351755, 40.593794776581774 -3.1121979531509023 M40.35484428754556 -4.339158212148133 C40.43556852716285 -3.924656302787444, 40.51629276678013 -3.510154393426755, 40.593794776581774 -3.1121979531509023 M40.593794776581774 -3.1121979531509023 C40.652939123954795 -2.6534860742981836, 40.712083471327816 -2.194774195445465, 40.75364270250937 -1.872449005199798 M40.593794776581774 -3.1121979531509023 C40.64253493543502 -2.734178905918133, 40.691275094288265 -2.3561598586853636, 40.75364270250937 -1.872449005199798 M40.75364270250937 -1.872449005199798 C40.771498941738244 -1.5943236659131812, 40.78935518096712 -1.3161983266265644, 40.83373121591342 -0.6250057626472757 M40.75364270250937 -1.872449005199798 C40.77112274566832 -1.6001832233621507, 40.78860278882728 -1.3279174415245034, 40.83373121591342 -0.6250057626472757 M40.83373121591342 -0.6250057626472757 C40.83373121591342 -0.20738259411423549, 40.83373121591342 0.21024057441880473, 40.83373121591342 0.625005762647271 M40.83373121591342 -0.6250057626472757 C40.83373121591342 -0.36718673838137683, 40.83373121591342 -0.10936771411547797, 40.83373121591342 0.625005762647271 M40.83373121591342 0.625005762647271 C40.812151488370084 0.9611274379771916, 40.79057176082676 1.297249113307112, 40.75364270250937 1.8724490051997846 M40.83373121591342 0.625005762647271 C40.80304575435058 1.1029565953471996, 40.772360292787745 1.5809074280471282, 40.75364270250937 1.8724490051997846 M40.75364270250937 1.8724490051997846 C40.71076615189799 2.2049910648089894, 40.667889601286625 2.5375331244181947, 40.593794776581774 3.1121979531508885 M40.75364270250937 1.8724490051997846 C40.69500099664136 2.32726249579741, 40.636359290773356 2.7820759863950353, 40.593794776581774 3.1121979531508885 M40.593794776581774 3.1121979531508885 C40.53259972865896 3.4264215906566085, 40.471404680736136 3.7406452281623284, 40.35484428754556 4.339158212148129 M40.593794776581774 3.1121979531508885 C40.543153461958234 3.372230400697144, 40.49251214733469 3.6322628482433994, 40.35484428754556 4.339158212148129 M40.35484428754556 4.339158212148129 C40.23834259496972 4.783429658092753, 40.12184090239389 5.2277011040373775, 40.03777313421489 5.548287939305125 M40.35484428754556 4.339158212148129 C40.26307084717863 4.689130115127897, 40.171297406811696 5.039102018107665, 40.03777313421489 5.548287939305125 M40.03777313421489 5.548287939305125 C39.89696550638091 5.972378079692246, 39.75615787854694 6.396468220079367, 39.643884229970325 6.734618561215495 M40.03777313421489 5.548287939305125 C39.909310108330764 5.935198105464515, 39.780847082446634 6.322108271623906, 39.643884229970325 6.734618561215495 M39.643884229970325 6.734618561215495 C39.52136267815339 7.0372491629963925, 39.39884112633645 7.33987976477729, 39.17479614880834 7.893275190886679 M39.643884229970325 6.734618561215495 C39.54510387215122 6.978607954816981, 39.446323514332114 7.222597348418468, 39.17479614880834 7.893275190886679 M39.17479614880834 7.893275190886679 C39.01681668687651 8.221322923807117, 38.85883722494468 8.549370656727554, 38.632436474273504 9.019496659696284 M39.17479614880834 7.893275190886679 C39.01002916265732 8.235417363078012, 38.8452621765063 8.577559535269344, 38.632436474273504 9.019496659696284 M38.632436474273504 9.019496659696284 C38.47505092245081 9.29895064397274, 38.31766537062813 9.578404628249196, 38.01903387860425 10.108655082055236 M38.632436474273504 9.019496659696284 C38.43135553223975 9.376536233930532, 38.230274590206 9.733575808164778, 38.01903387860425 10.108655082055236 M38.01903387860425 10.108655082055236 C37.770054980043945 10.491153530439435, 37.52107608148364 10.873651978823634, 37.33710896464064 11.156274872382301 M38.01903387860425 10.108655082055236 C37.85497308426805 10.360696518647398, 37.690912289931866 10.61273795523956, 37.33710896464064 11.156274872382301 M37.33710896464064 11.156274872382301 C37.17069295149735 11.379257169183624, 37.00427693835406 11.60223946598495, 36.58946390812658 12.158051136245302 M37.33710896464064 11.156274872382301 C37.064852782136086 11.521073353889937, 36.79259659963152 11.885871835397573, 36.58946390812658 12.158051136245302 M36.58946390812658 12.158051136245302 C36.37103794006069 12.414626707125176, 36.152611971994794 12.671202278005051, 35.77917094296866 13.10986736009567 M36.58946390812658 12.158051136245302 C36.30053595470167 12.49744235080449, 36.01160800127676 12.83683356536368, 35.77917094296866 13.10986736009567 M35.77917094296866 13.10986736009567 C35.604920106880186 13.289795654616727, 35.430669270791704 13.469723949137784, 34.90955973676799 14.007812326905684 M35.77917094296866 13.10986736009567 C35.59662468780722 13.298361355876132, 35.41407843264578 13.486855351656592, 34.90955973676799 14.007812326905684 M34.90955973676799 14.007812326905684 C34.57918362614215 14.307851169303195, 34.248807515516305 14.607890011700706, 33.98420370850189 14.848196188198111 M34.90955973676799 14.007812326905684 C34.72124231892488 14.178837223184958, 34.53292490108177 14.34986211946423, 33.98420370850189 14.848196188198111 M33.98420370850189 14.848196188198111 C33.71769439099382 15.060730276800003, 33.45118507348576 15.273264365401896, 33.00690534457871 15.627565626425152 M33.98420370850189 14.848196188198111 C33.62879618966346 15.131624226680476, 33.273388670825035 15.41505226516284, 33.00690534457871 15.627565626425152 M33.00690534457871 15.627565626425152 C32.70502569842214 15.838143799424715, 32.40314605226557 16.04872197242428, 31.981680573605708 16.34271804539089 M33.00690534457871 15.627565626425152 C32.644384121743315 15.880444738184323, 32.28186289890792 16.133323849943494, 31.981680573605708 16.34271804539089 M31.981680573605708 16.34271804539089 C31.558558530068982 16.59921711472398, 31.135436486532257 16.855716184057073, 30.912742264076787 16.990714730406093 M31.981680573605708 16.34271804539089 C31.577315707464756 16.587846403557254, 31.172950841323804 16.83297476172362, 30.912742264076787 16.990714730406093 M30.912742264076787 16.990714730406093 C30.62258523905385 17.142089464506114, 30.332428214030916 17.293464198606134, 29.804482912792388 17.56889292409717 M30.912742264076787 16.990714730406093 C30.555515082138417 17.17707992240841, 30.19828790020005 17.363445114410727, 29.804482912792388 17.56889292409717 M29.804482912792388 17.56889292409717 C29.480314133923766 17.712392826377144, 29.15614535505515 17.85589272865712, 28.661456595147804 18.07487676824742 M29.804482912792388 17.56889292409717 C29.565282298737895 17.674779940304987, 29.326081684683402 17.780666956512803, 28.661456595147804 18.07487676824742 M28.661456595147804 18.07487676824742 C28.270598271319404 18.21871624447101, 27.879739947491004 18.3625557206946, 27.488360251460616 18.506587066708033 M28.661456595147804 18.07487676824742 C28.32354534772912 18.199231230914826, 27.98563410031044 18.32358569358223, 27.488360251460616 18.506587066708033 M27.488360251460616 18.506587066708033 C27.046993221689323 18.63758248436134, 26.60562619191803 18.768577902014645, 26.290014386235413 18.86224982926107 M27.488360251460616 18.506587066708033 C27.072631248203468 18.629973252668687, 26.65690224494632 18.753359438629342, 26.290014386235413 18.86224982926107 M26.290014386235413 18.86224982926107 C25.887973986113995 18.95401292702999, 25.48593358599258 19.045776024798904, 25.071343259676766 19.140403561325773 M26.290014386235413 18.86224982926107 C26.027316371205973 18.922208936926786, 25.764618356176534 18.982168044592502, 25.071343259676766 19.140403561325773 M25.071343259676766 19.140403561325773 C24.67862891712302 19.20389457068465, 24.28591457456928 19.267385580043527, 23.83735465284788 19.3399052695533 M25.071343259676766 19.140403561325773 C24.586240620068555 19.21883119407047, 24.101137980460347 19.297258826815174, 23.83735465284788 19.3399052695533 M23.83735465284788 19.3399052695533 C23.55234665631413 19.367399648206643, 23.26733865978038 19.39489402685999, 22.5931192896239 19.45993515863156 M23.83735465284788 19.3399052695533 C23.522975448186834 19.37023305333064, 23.208596243525793 19.400560837107978, 22.5931192896239 19.45993515863156 M22.5931192896239 19.45993515863156 C22.09508648375775 19.475906101353637, 21.5970536778916 19.491877044075714, 21.343750000000004 19.5 M22.5931192896239 19.45993515863156 C22.320552371737563 19.468675849168854, 22.047985453851226 19.477416539706148, 21.343750000000004 19.5 M21.343750000000004 19.5 C21.343750000000004 19.5, 21.343750000000004 19.5, 21.34375 19.5 M21.343750000000004 19.5 C21.343750000000004 19.5, 21.34375 19.5, 21.34375 19.5 M21.34375 19.5 C11.876970453614934 19.5, 2.410190907229868 19.5, -21.343749999999996 19.5 M21.34375 19.5 C11.43806023940538 19.5, 1.5323704788107584 19.5, -21.343749999999996 19.5 M-21.343749999999996 19.5 C-21.75836952920012 19.486703958706507, -22.172989058400244 19.473407917413017, -22.593119289623893 19.45993515863156 M-21.343749999999996 19.5 C-21.657539420618924 19.489937384034807, -21.971328841237852 19.479874768069614, -22.593119289623893 19.45993515863156 M-22.593119289623893 19.45993515863156 C-23.055081270244205 19.415370241951685, -23.517043250864518 19.37080532527181, -23.83735465284787 19.3399052695533 M-22.593119289623893 19.45993515863156 C-23.08109587014666 19.412860644786228, -23.569072450669434 19.365786130940897, -23.83735465284787 19.3399052695533 M-23.83735465284787 19.3399052695533 C-24.200273238088776 19.281231407167212, -24.563191823329685 19.222557544781125, -25.07134325967676 19.140403561325773 M-23.83735465284787 19.3399052695533 C-24.26182573173578 19.271280077341082, -24.686296810623688 19.202654885128865, -25.07134325967676 19.140403561325773 M-25.07134325967676 19.140403561325773 C-25.514563020819196 19.039241543124252, -25.957782781961633 18.938079524922728, -26.290014386235388 18.862249829261074 M-25.07134325967676 19.140403561325773 C-25.505529566385476 19.041303370149947, -25.939715873094197 18.942203178974122, -26.290014386235388 18.862249829261074 M-26.290014386235388 18.862249829261074 C-26.60858132920775 18.767700832778885, -26.927148272180116 18.673151836296693, -27.48836025146059 18.506587066708043 M-26.290014386235388 18.862249829261074 C-26.73783120016582 18.729340149524948, -27.18564801409625 18.59643046978882, -27.48836025146059 18.506587066708043 M-27.48836025146059 18.506587066708043 C-27.88393535124969 18.36101177332952, -28.27951045103879 18.21543647995099, -28.661456595147797 18.074876768247425 M-27.48836025146059 18.506587066708043 C-27.732976135039696 18.41656616034649, -27.977592018618804 18.326545253984943, -28.661456595147797 18.074876768247425 M-28.661456595147797 18.074876768247425 C-28.98640223879186 17.931032970976236, -29.311347882435925 17.78718917370505, -29.80448291279238 17.568892924097174 M-28.661456595147797 18.074876768247425 C-29.02999376411154 17.911736295813867, -29.398530933075286 17.748595823380313, -29.80448291279238 17.568892924097174 M-29.80448291279238 17.568892924097174 C-30.08286728846938 17.423659973620186, -30.36125166414638 17.2784270231432, -30.91274226407678 16.990714730406097 M-29.80448291279238 17.568892924097174 C-30.078715497849913 17.425825960127014, -30.352948082907442 17.282758996156854, -30.91274226407678 16.990714730406097 M-30.91274226407678 16.990714730406097 C-31.276380202783788 16.77027527498818, -31.640018141490796 16.549835819570262, -31.981680573605686 16.3427180453909 M-30.91274226407678 16.990714730406097 C-31.193953512502883 16.820242819029463, -31.475164760928983 16.649770907652833, -31.981680573605686 16.3427180453909 M-31.981680573605686 16.3427180453909 C-32.20191209960959 16.189094066519687, -32.42214362561348 16.035470087648473, -33.00690534457871 15.627565626425156 M-31.981680573605686 16.3427180453909 C-32.252418913832436 16.153862699322577, -32.52315725405918 15.96500735325425, -33.00690534457871 15.627565626425156 M-33.00690534457871 15.627565626425156 C-33.20638179828758 15.468488462883702, -33.40585825199644 15.30941129934225, -33.984203708501866 14.848196188198125 M-33.00690534457871 15.627565626425156 C-33.358438263778254 15.34722747804737, -33.709971182977796 15.066889329669584, -33.984203708501866 14.848196188198125 M-33.984203708501866 14.848196188198125 C-34.27408416763616 14.584934425029017, -34.56396462677045 14.321672661859909, -34.909559736767974 14.007812326905697 M-33.984203708501866 14.848196188198125 C-34.18123890076169 14.669254039853259, -34.378274093021524 14.49031189150839, -34.909559736767974 14.007812326905697 M-34.909559736767974 14.007812326905697 C-35.120878213224216 13.789608650395055, -35.33219668968046 13.571404973884412, -35.779170942968655 13.109867360095677 M-34.909559736767974 14.007812326905697 C-35.09857814957925 13.81263529697776, -35.28759656239051 13.617458267049825, -35.779170942968655 13.109867360095677 M-35.779170942968655 13.109867360095677 C-36.084998587121156 12.750624807188215, -36.39082623127366 12.391382254280753, -36.589463908126575 12.158051136245307 M-35.779170942968655 13.109867360095677 C-35.97523747283587 12.87955645761204, -36.171304002703096 12.649245555128402, -36.589463908126575 12.158051136245307 M-36.589463908126575 12.158051136245307 C-36.74814286490661 11.945435790110405, -36.906821821686655 11.732820443975502, -37.337108964640635 11.156274872382316 M-36.589463908126575 12.158051136245307 C-36.811528185668635 11.860505234810809, -37.0335924632107 11.562959333376309, -37.337108964640635 11.156274872382316 M-37.337108964640635 11.156274872382316 C-37.56245766404603 10.810078755496999, -37.78780636345142 10.463882638611684, -38.01903387860425 10.108655082055249 M-37.337108964640635 11.156274872382316 C-37.52868764799538 10.861958568669808, -37.72026633135014 10.5676422649573, -38.01903387860425 10.108655082055249 M-38.01903387860425 10.108655082055249 C-38.232523752385326 9.729582192963022, -38.44601362616641 9.350509303870796, -38.632436474273504 9.019496659696289 M-38.01903387860425 10.108655082055249 C-38.16545511061148 9.848669357868898, -38.311876342618724 9.58868363368255, -38.632436474273504 9.019496659696289 M-38.632436474273504 9.019496659696289 C-38.74517342955144 8.785395959877228, -38.85791038482938 8.551295260058168, -39.17479614880834 7.893275190886686 M-38.632436474273504 9.019496659696289 C-38.775494257937716 8.722434110971342, -38.91855204160192 8.425371562246395, -39.17479614880834 7.893275190886686 M-39.17479614880834 7.893275190886686 C-39.35233981065264 7.454738913558086, -39.529883472496934 7.016202636229485, -39.643884229970325 6.73461856121551 M-39.17479614880834 7.893275190886686 C-39.29182464655431 7.604212538862064, -39.40885314430028 7.315149886837441, -39.643884229970325 6.73461856121551 M-39.643884229970325 6.73461856121551 C-39.731790583706925 6.469858629736297, -39.81969693744352 6.205098698257084, -40.03777313421488 5.5482879393051325 M-39.643884229970325 6.73461856121551 C-39.75959627477431 6.38611231847655, -39.8753083195783 6.03760607573759, -40.03777313421488 5.5482879393051325 M-40.03777313421488 5.5482879393051325 C-40.10405750373556 5.2955169104953, -40.17034187325625 5.042745881685467, -40.35484428754556 4.339158212148136 M-40.03777313421488 5.5482879393051325 C-40.104321484838906 5.294510236138131, -40.17086983546292 5.04073253297113, -40.35484428754556 4.339158212148136 M-40.35484428754556 4.339158212148136 C-40.40956786085365 4.058164229042426, -40.46429143416173 3.7771702459367154, -40.593794776581774 3.112197953150904 M-40.35484428754556 4.339158212148136 C-40.4143441201556 4.033639146989655, -40.47384395276564 3.728120081831175, -40.593794776581774 3.112197953150904 M-40.593794776581774 3.112197953150904 C-40.64921747959246 2.6823504130506426, -40.70464018260315 2.252502872950381, -40.75364270250937 1.872449005199809 M-40.593794776581774 3.112197953150904 C-40.63323035595088 2.806343387000112, -40.67266593531998 2.50048882084932, -40.75364270250937 1.872449005199809 M-40.75364270250937 1.872449005199809 C-40.78087859360808 1.4482280169217945, -40.80811448470679 1.0240070286437801, -40.83373121591342 0.6250057626472781 M-40.75364270250937 1.872449005199809 C-40.77442283259322 1.5487817057247495, -40.79520296267707 1.22511440624969, -40.83373121591342 0.6250057626472781 M-40.83373121591342 0.6250057626472781 C-40.83373121591342 0.30576850919915083, -40.83373121591342 -0.013468744248976483, -40.83373121591342 -0.6250057626472687 M-40.83373121591342 0.6250057626472781 C-40.83373121591342 0.1315982146268745, -40.83373121591342 -0.36180933339352916, -40.83373121591342 -0.6250057626472687 M-40.83373121591342 -0.6250057626472687 C-40.815073924489084 -0.9156081364758046, -40.79641663306475 -1.2062105103043406, -40.75364270250937 -1.8724490051997822 M-40.83373121591342 -0.6250057626472687 C-40.80689604737258 -1.0429851736289542, -40.78006087883175 -1.4609645846106394, -40.75364270250937 -1.8724490051997822 M-40.75364270250937 -1.8724490051997822 C-40.69679434770141 -2.313353619112849, -40.639945992893466 -2.754258233025916, -40.593794776581774 -3.112197953150895 M-40.75364270250937 -1.8724490051997822 C-40.6915527633406 -2.3540063123473915, -40.62946282417184 -2.8355636194950007, -40.593794776581774 -3.112197953150895 M-40.593794776581774 -3.112197953150895 C-40.51636149135843 -3.509801507242131, -40.43892820613509 -3.9074050613333666, -40.35484428754556 -4.339158212148126 M-40.593794776581774 -3.112197953150895 C-40.501736593881375 -3.5848972648136583, -40.40967841118097 -4.0575965764764215, -40.35484428754556 -4.339158212148126 M-40.35484428754556 -4.339158212148126 C-40.27998747727006 -4.624619672875409, -40.20513066699456 -4.9100811336026915, -40.03777313421489 -5.548287939305123 M-40.35484428754556 -4.339158212148126 C-40.232086012064556 -4.80728872033034, -40.10932773658355 -5.275419228512555, -40.03777313421489 -5.548287939305123 M-40.03777313421489 -5.548287939305123 C-39.9245794545674 -5.88920926743969, -39.81138577491992 -6.230130595574257, -39.64388422997033 -6.734618561215485 M-40.03777313421489 -5.548287939305123 C-39.9448321680975 -5.8282113211187205, -39.851891201980116 -6.108134702932317, -39.64388422997033 -6.734618561215485 M-39.64388422997033 -6.734618561215485 C-39.54060873354753 -6.989711034075701, -39.437333237124726 -7.244803506935917, -39.17479614880834 -7.893275190886676 M-39.64388422997033 -6.734618561215485 C-39.517243817790195 -7.047422827726221, -39.390603405610065 -7.360227094236958, -39.17479614880834 -7.893275190886676 M-39.17479614880834 -7.893275190886676 C-38.981317703965054 -8.295037321379306, -38.78783925912177 -8.696799451871936, -38.632436474273504 -9.019496659696282 M-39.17479614880834 -7.893275190886676 C-39.03317614957846 -8.187352149470088, -38.89155615034858 -8.481429108053499, -38.632436474273504 -9.019496659696282 M-38.632436474273504 -9.019496659696282 C-38.46573725703297 -9.31548800003302, -38.29903803979243 -9.611479340369755, -38.01903387860425 -10.108655082055243 M-38.632436474273504 -9.019496659696282 C-38.422331657259235 -9.392559037724867, -38.212226840244966 -9.76562141575345, -38.01903387860425 -10.108655082055243 M-38.01903387860425 -10.108655082055243 C-37.76169454170867 -10.503997408814458, -37.504355204813095 -10.899339735573673, -37.33710896464064 -11.156274872382308 M-38.01903387860425 -10.108655082055243 C-37.760205408419544 -10.506285117434839, -37.501376938234834 -10.903915152814434, -37.33710896464064 -11.156274872382308 M-37.33710896464064 -11.156274872382308 C-37.12902884156308 -11.435083280817064, -36.92094871848551 -11.71389168925182, -36.58946390812659 -12.158051136245302 M-37.33710896464064 -11.156274872382308 C-37.17131703628709 -11.378420952420672, -37.00552510793354 -11.600567032459038, -36.58946390812659 -12.158051136245302 M-36.58946390812659 -12.158051136245302 C-36.36948025703907 -12.416456450237051, -36.14949660595155 -12.674861764228801, -35.77917094296866 -13.10986736009567 M-36.58946390812659 -12.158051136245302 C-36.356237043097515 -12.432012682893019, -36.12301017806845 -12.705974229540734, -35.77917094296866 -13.10986736009567 M-35.77917094296866 -13.10986736009567 C-35.51852503117492 -13.379005663450046, -35.257879119381165 -13.648143966804424, -34.909559736767996 -14.007812326905677 M-35.77917094296866 -13.10986736009567 C-35.597026037165314 -13.297946929712504, -35.41488113136197 -13.486026499329338, -34.909559736767996 -14.007812326905677 M-34.909559736767996 -14.007812326905677 C-34.560961625149105 -14.324399908477345, -34.21236351353022 -14.64098749004901, -33.98420370850189 -14.848196188198107 M-34.909559736767996 -14.007812326905677 C-34.60328605106544 -14.285961984703077, -34.29701236536288 -14.564111642500476, -33.98420370850189 -14.848196188198107 M-33.98420370850189 -14.848196188198107 C-33.64903525300038 -15.115484112253377, -33.313866797498875 -15.382772036308646, -33.00690534457872 -15.627565626425149 M-33.98420370850189 -14.848196188198107 C-33.72919723833003 -15.051557062152998, -33.474190768158174 -15.25491793610789, -33.00690534457872 -15.627565626425149 M-33.00690534457872 -15.627565626425149 C-32.66348412879843 -15.867121400088655, -32.320062913018134 -16.10667717375216, -31.98168057360571 -16.342718045390885 M-33.00690534457872 -15.627565626425149 C-32.752187822506414 -15.805245543278975, -32.49747030043411 -15.982925460132801, -31.98168057360571 -16.342718045390885 M-31.98168057360571 -16.342718045390885 C-31.689970298615435 -16.51955452836985, -31.398260023625156 -16.696391011348812, -30.91274226407679 -16.99071473040609 M-31.98168057360571 -16.342718045390885 C-31.72344901120271 -16.49925953605669, -31.46521744879971 -16.655801026722493, -30.91274226407679 -16.99071473040609 M-30.91274226407679 -16.99071473040609 C-30.608722320784807 -17.14932174008745, -30.304702377492827 -17.30792874976881, -29.804482912792388 -17.56889292409717 M-30.91274226407679 -16.99071473040609 C-30.600665880198708 -17.153524779980824, -30.288589496320625 -17.316334829555554, -29.804482912792388 -17.56889292409717 M-29.804482912792388 -17.56889292409717 C-29.536880536803686 -17.687352557804928, -29.269278160814988 -17.805812191512683, -28.661456595147804 -18.07487676824742 M-29.804482912792388 -17.56889292409717 C-29.453366935659698 -17.724321551688412, -29.102250958527012 -17.879750179279654, -28.661456595147804 -18.07487676824742 M-28.661456595147804 -18.07487676824742 C-28.2192507891737 -18.237612592551553, -27.7770449831996 -18.40034841685568, -27.48836025146062 -18.506587066708033 M-28.661456595147804 -18.07487676824742 C-28.27669293014963 -18.216473353683078, -27.891929265151454 -18.35806993911874, -27.48836025146062 -18.506587066708033 M-27.48836025146062 -18.506587066708033 C-27.085487362151163 -18.62615762553213, -26.682614472841703 -18.745728184356228, -26.290014386235413 -18.862249829261067 M-27.48836025146062 -18.506587066708033 C-27.12480176970783 -18.614489315734847, -26.76124328795504 -18.72239156476166, -26.290014386235413 -18.862249829261067 M-26.290014386235413 -18.862249829261067 C-25.90181397301579 -18.950854040334004, -25.51361355979617 -19.039458251406945, -25.071343259676766 -19.140403561325773 M-26.290014386235413 -18.862249829261067 C-25.986577289718383 -18.931507366428974, -25.683140193201353 -19.00076490359688, -25.071343259676766 -19.140403561325773 M-25.071343259676766 -19.140403561325773 C-24.740003705114482 -19.193971970930782, -24.408664150552198 -19.24754038053579, -23.837354652847882 -19.3399052695533 M-25.071343259676766 -19.140403561325773 C-24.588985820133452 -19.218387371413325, -24.106628380590134 -19.296371181500877, -23.837354652847882 -19.3399052695533 M-23.837354652847882 -19.3399052695533 C-23.35772770784318 -19.386174304102106, -22.878100762838475 -19.432443338650916, -22.593119289623903 -19.45993515863156 M-23.837354652847882 -19.3399052695533 C-23.449626933011672 -19.37730889637509, -23.061899213175458 -19.414712523196883, -22.593119289623903 -19.45993515863156 M-22.593119289623903 -19.45993515863156 C-22.245577212793897 -19.47108015658588, -21.89803513596389 -19.482225154540206, -21.343750000000007 -19.5 M-22.593119289623903 -19.45993515863156 C-22.284431039923607 -19.469834189974218, -21.975742790223308 -19.47973322131688, -21.343750000000007 -19.5 M-21.343750000000007 -19.5 C-21.343750000000004 -19.5, -21.343750000000004 -19.5, -21.34375 -19.5 M-21.343750000000007 -19.5 C-21.343750000000004 -19.5, -21.34375 -19.5, -21.34375 -19.5" stroke="#999" stroke-width="1.3" fill="none" stroke-dasharray="0 0" style=""/></g><g class="label" style="" transform="translate(-28.46875, -12)"><rect/><foreignObject width="56.9375" height="24"><div xmlns="http://www.w3.org/1999/xhtml" style="display: table-cell; white-space: nowrap; line-height: 1.5; max-width: 200px; text-align: center;"><span class="nodeLabel"><p>photons</p></span></div></foreignObject></g></g></g></g></g><defs><filter id="my-svg-drop-shadow" height="130%" width="130%"><feDropShadow dx="4" dy="4" stdDeviation="0" flood-opacity="0.06" flood-color="#000000"/></filter></defs><defs><filter id="my-svg-drop-shadow-small" height="150%" width="150%"><feDropShadow dx="2" dy="2" stdDeviation="0" flood-opacity="0.06" flood-color="#000000"/></filter></defs><linearGradient id="my-svg-gradient" gradientUnits="objectBoundingBox" x1="0%" y1="0%" x2="100%" y2="0%"><stop offset="0%" stop-color="hsl(0, 0%, 83.3333333333%)" stop-opacity="1"/><stop offset="100%" stop-color="hsl(0, 0%, 88.9215686275%)" stop-opacity="1"/></linearGradient></svg>